<svg width="72" height="72" viewBox="0 0 72 72" fill="none" xmlns="http://www.w3.org/2000/svg">
<rect x="0.4" y="0.4" width="71.2" height="71.2" rx="9.6" stroke="#E8E8E8" stroke-width="0.8"/>
<g clip-path="url(#clip0_1_1100)">
<path d="M59.7417 25.0132C59.0467 24.1249 57.8317 24.8366 57.2967 25.1466C53.49 27.3899 52.9283 31.3399 51.6017 33.6082C50.5583 35.4249 48.8483 36.7582 47.3017 36.8616C46.1583 36.9432 44.9183 36.7216 43.6883 36.1866C40.6767 34.8849 39.055 33.1999 38.66 32.9032C37.8483 32.2866 31.61 26.2116 26.5267 25.9632C26.5267 25.9632 25.9067 24.7132 25.7517 24.6916C25.3817 24.6499 25.0017 25.4432 24.725 25.5266C24.475 25.6149 24.0367 24.6732 23.7833 24.7149C23.5283 24.7482 23.28 25.6916 22.7833 26.1766C22.4167 26.5316 21.9733 26.5099 21.7217 26.9482C21.635 27.1082 21.665 27.3899 21.5667 27.6482C21.355 28.1816 20.6483 28.2382 20.6417 28.8099C20.6417 29.4449 21.2367 29.5666 21.7567 30.0099C22.17 30.3632 22.1983 30.6132 22.68 30.7782C23.11 30.9249 23.7333 30.4666 24.2867 30.6316C24.7483 30.7666 25.1917 30.8649 25.29 31.3366C25.38 31.7632 25.29 32.4332 24.7233 32.3582C24.5367 32.3332 23.7267 32.0682 22.7267 32.1749C21.5183 32.3032 20.1383 32.6899 20.0033 34.0249C19.935 34.7699 20.86 35.6416 21.7617 35.4682C22.38 35.3499 22.0883 34.6249 22.4267 34.2749C22.8717 33.8249 25.38 35.8482 27.7133 35.8482C28.7017 35.8482 29.4317 35.5982 30.1583 34.8399C30.225 34.7916 30.3133 34.6699 30.4167 34.6566C30.5325 34.6866 30.6424 34.7362 30.7417 34.8032C32.6267 36.2982 34.0483 39.3032 40.9583 39.3382C41.9283 39.3499 43.0417 39.8032 43.9517 40.6332C44.7517 41.3549 45.225 42.5082 45.68 43.6749C46.3767 45.4299 47.615 47.1232 49.5 49.0132C49.6 49.1266 51.15 50.3132 51.2667 50.4016C51.2867 50.4182 51.4067 50.6799 51.355 50.8266C51.3217 51.9766 51.15 55.2766 53.63 55.4149C54.24 55.4482 54.0883 55.0299 54.0883 54.7316C54.08 54.1632 53.98 53.5899 54.2767 52.9982C54.6983 52.2016 53.4 51.8166 53.4283 50.0716C53.46 48.7649 52.3533 48.9866 51.7883 47.9882C51.4717 47.4166 51.175 47.1016 51.205 46.4116C51.3267 42.4449 50.3433 39.8316 49.8633 39.1999C49.485 38.7099 49.1583 38.5282 49.5183 38.2999C51.585 36.9416 52.06 35.6766 52.06 35.6766C53.16 33.1082 54.1533 30.7682 55.5183 29.7266C55.795 29.5266 56.5 28.9932 56.9383 28.7932C58.21 28.1899 58.8933 27.8299 59.2517 27.4799C59.845 26.9182 60.31 25.7249 59.7417 25.0132Z" fill="black"/>
</g>
<defs>
<clipPath id="clip0_1_1100">
<rect width="40" height="40" fill="white" transform="translate(20 20)"/>
</clipPath>
</defs>
</svg>
