<svg width="48" height="48" viewBox="0 0 48 48" fill="none" xmlns="http://www.w3.org/2000/svg">
<path d="M43.3599 23.2159C42.8047 23.1076 42.2478 23.0078 41.6895 22.9167C37.9295 22.2767 33.2455 21.4895 23.7335 15.3903C23.3554 14.9754 22.9214 14.6151 22.4439 14.3199L19.4791 11.1663C19.2095 10.8801 18.8744 10.6637 18.5025 10.5359C18.1306 10.4081 17.7333 10.3727 17.3447 10.4327C16.9701 10.4859 16.6144 10.6305 16.309 10.8538C16.0036 11.077 15.7579 11.372 15.5935 11.7127C15.1682 12.4913 14.968 13.3729 15.0153 14.2588C15.0627 15.1447 15.3557 15.9999 15.8615 16.7287C15.3712 17.4981 14.6997 18.1354 13.9058 18.5848C13.1119 19.0342 12.2198 19.282 11.3079 19.3063C10.3684 19.2412 9.46059 18.9395 8.66894 18.4294C7.87729 17.9193 7.22746 17.2173 6.77988 16.3887C5.96708 15.0351 5.07508 13.8287 4.03428 14.1103C2.89348 14.4263 2.89348 16.1103 2.89348 17.6007C2.97261 19.6587 2.72225 21.7162 2.15188 23.6951L0.343078 27.3135C0.05758 27.8805 -0.0522932 28.5198 0.0275132 29.1495C0.10732 29.7793 0.373177 30.3709 0.791078 30.8487C1.99988 32.1943 4.58468 33.9023 10.0935 34.3999H34.6911C36.3119 34.4035 37.9236 34.1574 39.4695 33.6703C41.9863 32.8719 47.9999 30.6447 47.9999 27.9999C47.9999 26.6663 47.0295 23.9503 43.3599 23.2159ZM17.0319 12.4127C17.0839 12.3053 17.1618 12.2126 17.2586 12.1427C17.3553 12.0729 17.468 12.0282 17.5863 12.0127C17.7185 11.9921 17.8538 12.0039 17.9805 12.0471C18.1071 12.0903 18.2214 12.1636 18.3135 12.2607L19.6583 13.6903C18.5729 13.9064 17.5981 14.4974 16.9047 15.3599C16.6912 14.8937 16.5914 14.3834 16.6135 13.871C16.6356 13.3587 16.779 12.8589 17.0319 12.4127ZM4.49348 17.5999C4.48536 17.0586 4.50752 16.5172 4.55988 15.9783C4.87474 16.3665 5.1583 16.779 5.40788 17.2119C5.99359 18.2725 6.83843 19.1675 7.86357 19.8132C8.88872 20.459 10.0607 20.8345 11.2703 20.9047H11.4191C13.7455 20.9047 15.8871 19.6087 17.4655 17.2415C18.3231 15.9551 19.2207 15.2807 20.1351 15.2415C20.9418 15.2616 21.7079 15.5998 22.2663 16.1823L20.9599 17.9199C20.8326 18.0897 20.7779 18.303 20.8079 18.5131C20.8379 18.7231 20.9501 18.9126 21.1199 19.0399C21.2896 19.1672 21.503 19.2219 21.713 19.1919C21.9231 19.1619 22.1126 19.0497 22.2399 18.8799L23.5351 17.1543C24.0983 17.509 24.646 17.8461 25.1783 18.1655L24.1599 19.5199C24.0968 19.604 24.051 19.6996 24.0249 19.8014C23.9988 19.9032 23.9931 20.0091 24.0079 20.1131C24.0228 20.2171 24.058 20.3171 24.1115 20.4075C24.165 20.4979 24.2358 20.5769 24.3199 20.6399C24.4039 20.703 24.4996 20.7488 24.6013 20.7749C24.7031 20.801 24.809 20.8068 24.913 20.7919C25.017 20.777 25.1171 20.7418 25.2075 20.6883C25.2979 20.6348 25.3768 20.564 25.4399 20.4799L26.5671 18.9815C27.1511 19.3159 27.7135 19.6271 28.2591 19.9191L27.3599 21.1199C27.2326 21.2897 27.1779 21.503 27.2079 21.7131C27.2379 21.9231 27.3501 22.1126 27.5199 22.2399C27.6896 22.3672 27.903 22.4219 28.113 22.3919C28.3231 22.3619 28.5126 22.2497 28.6399 22.0799L29.6975 20.6671C30.3127 20.9759 30.9015 21.2559 31.4671 21.5135L30.5599 22.7199C30.4326 22.8897 30.3779 23.103 30.4079 23.3131C30.4379 23.5231 30.5501 23.7126 30.7199 23.8399C30.8896 23.9672 31.103 24.0219 31.313 23.9919C31.5231 23.9619 31.7126 23.8497 31.8399 23.6799L32.9775 22.1671C35.6858 23.2861 38.5215 24.0674 41.4207 24.4935C41.9807 24.5887 42.5207 24.6791 43.0439 24.7831C43.6303 24.8598 44.1933 25.0619 44.6945 25.3756C45.1958 25.6894 45.6236 26.1076 45.9487 26.6015C43.0055 28.3191 38.3799 29.7927 32.2199 28.0303C22.9831 25.3903 20.0455 25.9711 16.3231 26.7047C15.4471 26.8783 14.5415 27.0567 13.4879 27.2071C9.67028 27.7543 5.33268 25.8623 3.35988 24.8567C3.42628 24.5287 4.49348 23.7367 4.49348 17.5999ZM38.9847 32.1455C37.5956 32.583 36.1474 32.8037 34.6911 32.7999H10.1663C5.24708 32.3527 2.99988 30.9087 1.98228 29.7759C1.77724 29.5381 1.6479 29.2444 1.61084 28.9325C1.57378 28.6207 1.63069 28.3048 1.77428 28.0255L2.64388 26.2855C4.97188 27.4775 9.50388 29.3887 13.7135 28.7887C14.8087 28.6287 15.7359 28.4487 16.6319 28.2727C20.2815 27.5527 22.9151 27.0335 31.7799 29.5655C33.6901 30.1257 35.6693 30.4154 37.6599 30.4263C40.6436 30.438 43.5826 29.7011 46.2079 28.2831C45.4311 29.5199 42.8191 30.9287 38.9847 32.1455Z" fill="black"/>
</svg>
