<svg width="72" height="72" viewBox="0 0 72 72" fill="none" xmlns="http://www.w3.org/2000/svg">
<rect x="0.4" y="0.4" width="71.2" height="71.2" rx="9.6" stroke="#E8E8E8" stroke-width="0.8"/>
<path d="M59.9999 33L30.7366 45.46C28.3099 46.4867 26.2716 47.0017 24.6233 47.0017C22.7566 47.0017 21.4016 46.3483 20.5616 45.04C20.0333 44.2 19.8783 43.135 20.0949 41.8433C20.3116 40.5517 20.8883 39.1767 21.8216 37.7133C22.5999 36.53 23.8749 34.975 25.6499 33.0467C25.0479 33.9944 24.6064 35.0351 24.3433 36.1267C23.8766 38.1183 24.2966 39.58 25.6033 40.5133C26.2249 40.9483 27.0799 41.1667 28.1699 41.1667C29.0399 41.1667 30.0199 41.0267 31.1099 40.7467L59.9999 33Z" fill="black"/>
</svg>
