<svg width="24" height="24" viewBox="0 0 24 24" fill="none" xmlns="http://www.w3.org/2000/svg">
<path fill-rule="evenodd" clip-rule="evenodd" d="M1.25 2C1.25 1.58579 1.58579 1.25 2 1.25H2.88918C4.24891 1.25 5.4045 2.24372 5.60816 3.5881L5.70843 4.25H19.56C21.2956 4.25 22.5972 5.83793 22.2565 7.53972L21.2558 12.5397C20.9985 13.8249 19.87 14.75 18.5592 14.75H7.44312L7.72464 16.2331C7.83662 16.823 8.35224 17.25 8.95271 17.25H18C18.4142 17.25 18.75 17.5858 18.75 18C18.75 18.4142 18.4142 18.75 18 18.75H8.95271C7.63169 18.75 6.49731 17.8107 6.25095 16.5128L5.80052 14.1399L5.79875 14.1306L5.79722 14.1212L4.32335 5.12121L4.3219 5.11234L4.32195 5.11234L4.12508 3.81277C4.03251 3.20169 3.50724 2.75 2.88918 2.75H2C1.58579 2.75 1.25 2.41421 1.25 2ZM7.17453 13.25L5.94631 5.75H19.56C20.3489 5.75 20.9405 6.47179 20.7857 7.24533L19.7849 12.2453C19.668 12.8295 19.155 13.25 18.5592 13.25H7.17453ZM10 21C10 21.5523 9.55229 22 9 22C8.44772 22 8 21.5523 8 21C8 20.4477 8.44772 20 9 20C9.55229 20 10 20.4477 10 21ZM17 22C17.5523 22 18 21.5523 18 21C18 20.4477 17.5523 20 17 20C16.4477 20 16 20.4477 16 21C16 21.5523 16.4477 22 17 22Z" fill="black"/>
</svg>
