<svg width="301" height="250" viewBox="0 0 301 250" fill="none" xmlns="http://www.w3.org/2000/svg">
<path d="M164.043 249.328C231.37 249.328 285.95 194.931 285.95 127.828C285.95 60.7256 231.37 6.32813 164.043 6.32813C96.7164 6.32813 42.137 60.7256 42.137 127.828C42.137 194.931 96.7164 249.328 164.043 249.328Z" fill="url(#paint0_linear_1_1501)"/>
<path d="M153.654 4.3979L57.1872 81.7677V206.828C57.1872 217.874 66.1415 226.828 77.1872 226.828H254.503C265.548 226.828 274.503 217.874 274.503 206.828V81.7677L178.732 4.43901C171.42 -1.46451 160.985 -1.48162 153.654 4.3979Z" fill="black"/>
<rect x="88.5447" y="28.2725" width="155.329" height="192.716" rx="24" fill="url(#paint1_linear_1_1501)"/>
<path d="M101.91 57.3282C101.91 55.119 103.706 53.3282 105.923 53.3282H222.77C224.986 53.3282 226.783 55.119 226.783 57.3282C226.783 59.5373 224.986 61.3282 222.77 61.3282H105.923C103.706 61.3282 101.91 59.5373 101.91 57.3282Z" fill="#FF0000"/>
<path d="M101.91 83.3282C101.91 81.119 103.706 79.3282 105.923 79.3282H222.77C224.986 79.3282 226.783 81.119 226.783 83.3282C226.783 85.5373 224.986 87.3282 222.77 87.3282H105.923C103.706 87.3282 101.91 85.5373 101.91 83.3282Z" fill="#D5D5D5"/>
<path d="M101.91 109.328C101.91 107.119 103.706 105.328 105.923 105.328H222.77C224.986 105.328 226.783 107.119 226.783 109.328C226.783 111.537 224.986 113.328 222.77 113.328H105.923C103.706 113.328 101.91 111.537 101.91 109.328Z" fill="#D5D5D5"/>
<path d="M101.91 135.328C101.91 133.119 103.706 131.328 105.923 131.328H222.77C224.986 131.328 226.783 133.119 226.783 135.328C226.783 137.537 224.986 139.328 222.77 139.328H105.923C103.706 139.328 101.91 137.537 101.91 135.328Z" fill="#D5D5D5"/>
<path fill-rule="evenodd" clip-rule="evenodd" d="M57.1872 81.5611V206.828C57.1872 217.874 66.1415 226.828 77.1872 226.828H198.763C218.239 226.828 226.227 201.822 210.357 190.531L57.1872 81.5611Z" fill="url(#paint2_linear_1_1501)"/>
<path fill-rule="evenodd" clip-rule="evenodd" d="M274.503 81.5616V206.829C274.503 217.874 265.548 226.829 254.503 226.829H75.9359L274.503 81.5616Z" fill="#0AA066"/>
<path fill-rule="evenodd" clip-rule="evenodd" d="M274.913 83.4442L83.4284 226.828H75.4365L272.559 80.2125L274.913 83.4442Z" fill="black"/>
<path d="M15.3386 171.383L15.3384 171.383C14.5515 170.877 14.3203 169.825 14.8286 169.034C15.3326 168.243 16.3855 168.014 17.1735 168.521C22.4945 171.945 25.9788 176.693 27.7415 182.749C28.0063 183.651 27.4833 184.595 26.5877 184.858L26.5871 184.858C25.6856 185.121 24.7406 184.604 24.4814 183.701C22.9522 178.446 19.949 174.349 15.3386 171.383Z" fill="black" stroke="black"/>
<path d="M41.602 179.338C38.1762 182.563 36.528 189.336 35.6703 196.643C34.5074 206.541 34.9327 217.445 35.1324 222.566C35.1623 223.331 35.1871 223.967 35.2008 224.451L41.602 179.338ZM41.602 179.338L41.9447 179.702C41.9446 179.702 41.9446 179.702 41.9446 179.702L41.602 179.338ZM82.2226 182.585C82.1364 181.564 81.5806 180.374 81.2644 179.814L81.6999 179.568C81.6999 179.568 81.6998 179.568 81.6998 179.568C81.0293 178.378 80.2508 177.257 79.388 176.211L82.2226 182.585ZM82.2226 182.585L82.7207 182.541C82.7207 182.541 82.7208 182.541 82.7208 182.542C82.7208 182.542 82.7208 182.542 82.7209 182.542L82.2226 182.585ZM78.4998 182.328C78.6292 182.671 78.7634 182.978 79.0269 183.109C79.2377 183.215 79.4964 183.136 79.827 182.973M78.4998 182.328L79.2356 182.657C79.2355 182.657 79.2362 182.657 79.2379 182.657M78.4998 182.328C78.2673 181.713 78.147 180.955 78.1077 180.195C78.3197 180.521 78.5228 180.855 78.7178 181.195M78.4998 182.328L78.7178 181.195M79.827 182.973H79.327C79.327 182.929 79.3259 182.859 79.3218 182.787C79.3185 182.729 79.3139 182.681 79.3089 182.646M79.827 182.973L79.6193 182.553L79.7935 182.515M79.827 182.973C79.827 182.872 79.8222 182.654 79.7935 182.515M79.3089 182.646C79.2996 182.648 79.2909 182.65 79.2826 182.652C79.2621 182.656 79.2494 182.657 79.2424 182.658M79.3089 182.646C79.3074 182.635 79.3058 182.626 79.3042 182.618C79.1907 182.099 78.915 181.546 78.7449 181.243M79.3089 182.646C79.3532 182.635 79.4096 182.614 79.4823 182.583L79.1802 180.997M79.2424 182.658C79.2448 182.659 79.247 182.66 79.249 182.661L79.2517 182.663C79.2508 182.662 79.2498 182.662 79.249 182.661C79.244 182.659 79.2402 182.658 79.2379 182.657M79.2424 182.658C79.2228 182.646 79.1881 182.617 79.1404 182.539C79.0843 182.446 79.0322 182.323 78.9677 182.151L78.9675 182.151C78.8598 181.866 78.7775 181.542 78.7178 181.195M79.2424 182.658C79.2405 182.658 79.239 182.658 79.2379 182.657M79.2379 182.657L78.7178 181.195M78.7178 181.195C78.6544 180.827 78.6165 180.434 78.601 180.037C78.8019 180.351 78.9947 180.671 79.1802 180.997M78.7178 181.195C78.7269 181.211 78.7359 181.227 78.7449 181.243M78.7449 181.243C78.7446 181.242 78.7444 181.242 78.7441 181.241L79.1802 180.997M78.7449 181.243C78.7452 181.243 78.7454 181.244 78.7457 181.244L79.1802 180.997M79.7935 182.515L79.6185 182.551L79.7935 182.515ZM35.5516 226.219C35.5512 226.22 35.5508 226.221 35.5504 226.222C35.5497 226.224 35.549 226.225 35.5483 226.227L35.0906 226.026L35.5516 226.219ZM102.266 165.683C102.266 165.683 102.266 165.683 102.266 165.683C102.267 165.683 102.267 165.683 102.267 165.683L102.059 166.138L102.266 165.683ZM76.9323 173.639C77.0585 173.754 77.1836 173.87 77.3075 173.987C77.221 174.135 77.1361 174.284 77.0528 174.435C76.9287 174.316 76.8033 174.199 76.6767 174.083C76.7604 173.933 76.8456 173.786 76.9323 173.639ZM32.0256 215.479C32.0185 215.037 32.0125 214.585 32.0078 214.125C32.1833 214.541 32.3555 214.959 32.5241 215.379C32.5319 215.872 32.541 216.353 32.5512 216.821C32.3803 216.372 32.205 215.924 32.0256 215.479ZM0.926865 169.183C0.927163 169.183 0.92746 169.183 0.927758 169.182C0.928055 169.182 0.928361 169.182 0.928658 169.181L1.3023 169.514L0.926865 169.183Z" fill="black" stroke="black"/>
<path fill-rule="evenodd" clip-rule="evenodd" d="M265.357 35.2717C266.572 30.3613 266.492 25.6325 266.638 20.6518C266.666 19.6791 265.897 18.8704 264.921 18.8411C263.945 18.8118 263.13 19.5794 263.101 20.5522C262.963 25.2751 263.075 29.7694 261.921 34.4337C261.688 35.3771 262.269 36.3323 263.217 36.5608C264.164 36.7952 265.124 36.2151 265.357 35.2717Z" fill="black"/>
<path fill-rule="evenodd" clip-rule="evenodd" d="M275.682 44.7877C283.926 37.299 291.695 27.6657 297.124 17.9386C297.598 17.089 297.289 16.0166 296.436 15.5478C295.582 15.0791 294.504 15.3838 294.03 16.2335C288.78 25.6382 281.267 34.9552 273.295 42.1919C272.574 42.8482 272.524 43.9615 273.183 44.6764C273.841 45.3913 274.961 45.444 275.682 44.7877Z" fill="black"/>
<path fill-rule="evenodd" clip-rule="evenodd" d="M277.77 52.968C285.311 54.2044 293.083 52.095 299.94 49.1124C300.834 48.7198 301.243 47.6827 300.852 46.7978C300.46 45.9072 299.416 45.5028 298.521 45.8896C292.277 48.6085 285.214 50.6242 278.346 49.4992C277.383 49.3409 276.472 49.9913 276.313 50.9465C276.154 51.9016 276.807 52.8098 277.77 52.968Z" fill="black"/>
<path fill-rule="evenodd" clip-rule="evenodd" d="M59.9713 17.9433C61.0457 17.5618 62.1762 17.0547 63.0481 16.3205C64.0835 15.4485 64.5046 14.3255 64.7874 13.1433C65.1505 11.6245 65.2955 10.0067 65.7358 8.48544C65.8988 7.92052 66.2125 7.70698 66.3471 7.61221C66.6873 7.37282 67.0312 7.30884 67.3547 7.33284C67.7381 7.36053 68.2648 7.50514 68.6112 8.14575C68.6606 8.23744 68.7248 8.37714 68.768 8.56853C68.7995 8.70884 68.8199 9.1476 68.8532 9.32852C68.9366 9.77406 69.0064 10.2196 69.0718 10.6676C69.2898 12.1587 69.4151 13.4251 70.1036 14.795C71.0378 16.6547 71.9738 17.7925 73.2433 18.2965C74.4708 18.7839 75.9384 18.6922 77.8136 18.3101C77.992 18.267 78.1686 18.2301 78.3433 18.1999C79.1701 18.0559 79.9604 18.5968 80.1228 19.4178C80.2852 20.2381 79.7598 21.0375 78.9404 21.2178C78.7694 21.2553 78.6008 21.291 78.4341 21.3236C75.9001 21.9488 72.9667 24.1802 71.2619 26.1341C70.7364 26.7365 69.9671 28.4208 69.1824 29.4953C68.6032 30.2879 67.9524 30.8104 67.406 30.995C67.0398 31.1193 66.7311 31.1003 66.4761 31.0375C66.1056 30.9464 65.7982 30.7464 65.5623 30.4282C65.4339 30.2541 65.3147 30.0208 65.2579 29.723C65.2307 29.5796 65.2276 29.2153 65.2283 29.0504C65.0683 28.5021 64.8726 27.9667 64.73 27.4135C64.3898 26.0935 63.7223 25.2578 62.9295 24.1538C62.1879 23.1205 61.3915 22.4713 60.2239 21.9532C60.072 21.9162 58.8464 21.6171 58.4135 21.4455C57.7813 21.1938 57.4799 20.7722 57.3707 20.5451C57.1848 20.1599 57.1657 19.8233 57.2027 19.5427C57.2577 19.1285 57.4442 18.7741 57.7751 18.4879C57.9801 18.3101 58.2863 18.1371 58.6963 18.0528C59.0131 17.987 59.8534 17.9488 59.9713 17.9433ZM67.1615 15.7919C67.2183 15.9181 67.2788 16.0448 67.343 16.1728C68.7112 18.8965 70.2413 20.4172 72.101 21.155L72.1634 21.179C70.9192 22.0996 69.793 23.1285 68.9323 24.115C68.5779 24.5212 68.1086 25.3649 67.6017 26.2301C67.1411 24.7378 66.3878 23.683 65.4406 22.363C64.717 21.3556 63.9588 20.5975 63.0271 19.9796C63.7501 19.6098 64.4398 19.1765 65.0405 18.6707C66.0408 17.8282 66.7021 16.8522 67.1615 15.7919Z" fill="#FF0000"/>
<defs>
<linearGradient id="paint0_linear_1_1501" x1="163.104" y1="-33.2353" x2="165.584" y2="393.455" gradientUnits="userSpaceOnUse">
<stop stop-color="#D4ECE6"/>
<stop offset="1" stop-color="#C7E7DF"/>
</linearGradient>
<linearGradient id="paint1_linear_1_1501" x1="166.209" y1="28.2725" x2="166.209" y2="220.988" gradientUnits="userSpaceOnUse">
<stop stop-color="white"/>
<stop offset="0.71875" stop-color="#EAEAEA"/>
</linearGradient>
<linearGradient id="paint2_linear_1_1501" x1="57.1872" y1="81.3279" x2="206.13" y2="248.822" gradientUnits="userSpaceOnUse">
<stop stop-color="#C3E5DD"/>
<stop offset="1" stop-color="#0AA066"/>
</linearGradient>
</defs>
</svg>
