<svg width="258" height="248" viewBox="0 0 258 248" fill="none" xmlns="http://www.w3.org/2000/svg">
<path d="M140.093 235.813C205.211 235.813 258 183.025 258 117.907C258 52.7886 205.211 0 140.093 0C74.9754 0 22.1869 52.7886 22.1869 117.907C22.1869 183.025 74.9754 235.813 140.093 235.813Z" fill="#D6ECE7"/>
<path d="M203.885 6.02076H76.2221C71.4719 6.02076 66.9162 8.03831 63.5573 11.6296C60.1984 15.2208 58.3114 20.0916 58.3114 25.1704V180.708H58.5303V235.327C58.5302 237.436 59.0355 239.509 59.9981 241.35C60.9607 243.191 62.3485 244.737 64.0289 245.842C65.7094 246.946 67.6265 247.571 69.5974 247.658C71.5471 247.658 73.358 247.71 75.2814 247.658L123.536 247.84C125.543 247.84 134.787 247.84 136.581 247.84C138.376 247.84 142.602 247.84 144.511 247.84L205.209 247.84C206.824 247.855 208.924 247.941 210.887 247.84C212.85 247.74 214.757 247.104 216.426 245.995C218.095 244.886 219.472 243.34 220.425 241.503C221.379 239.665 221.878 237.598 221.875 235.497L221.716 180.708V25.1172C221.703 20.0623 219.821 15.218 216.481 11.6407C213.141 8.06337 208.613 6.04321 203.885 6.02076Z" fill="#0AA066"/>
<path fill-rule="evenodd" clip-rule="evenodd" d="M191.879 185.162H88.4154L88.4153 181.626H191.879V185.162Z" fill="black"/>
<path fill-rule="evenodd" clip-rule="evenodd" d="M191.879 207.238H88.4154L88.4153 203.702H191.879V207.238Z" fill="black"/>
<circle cx="140.093" cy="87.8028" r="57.699" fill="black"/>
<path fill-rule="evenodd" clip-rule="evenodd" d="M139.592 41.1419C121.901 41.1419 106.693 51.7884 100.033 67.0319C99.5889 68.0476 98.4058 68.5112 97.3901 68.0674C96.3744 67.6236 95.9108 66.4405 96.3545 65.4249C103.63 48.7721 120.249 37.128 139.592 37.128C140.7 37.128 141.599 38.0266 141.599 39.1349C141.599 40.2433 140.7 41.1419 139.592 41.1419Z" fill="white"/>
<path d="M151.633 76.263V71.8728C151.633 67.1425 151.633 64.7773 150.164 63.3078C148.694 61.8382 146.329 61.8382 141.599 61.8382H138.588C133.858 61.8382 131.493 61.8382 130.023 63.3078C128.554 64.7773 128.554 67.1425 128.554 71.8728V76.263" stroke="white" stroke-width="3" stroke-linecap="round"/>
<path fill-rule="evenodd" clip-rule="evenodd" d="M117.068 76.3171C114.129 79.2562 114.129 83.9865 114.129 93.4472V96.583C114.129 106.044 114.129 110.774 117.068 113.713C120.007 116.652 124.737 116.652 134.198 116.652H145.989C155.449 116.652 160.18 116.652 163.119 113.713C166.058 110.774 166.058 106.044 166.058 96.583V93.4472C166.058 83.9865 166.058 79.2562 163.119 76.3171C160.18 73.378 155.449 73.378 145.989 73.378H134.198C124.737 73.378 120.007 73.378 117.068 76.3171ZM139.09 99.3426V100.145C135.895 99.6616 133.446 96.9031 133.446 93.5727C133.446 89.9011 136.422 86.9247 140.093 86.9247C143.765 86.9247 146.741 89.9011 146.741 93.5727C146.741 96.9031 144.292 99.6616 141.097 100.145V99.3426H139.09ZM131.439 93.5727C131.439 98.0132 134.783 101.673 139.09 102.17V107.997H141.097V102.17C145.404 101.673 148.748 98.0132 148.748 93.5727C148.748 88.7927 144.873 84.9178 140.093 84.9178C135.313 84.9178 131.439 88.7927 131.439 93.5727Z" fill="white"/>
<g filter="url(#filter0_f_1_1537)">
<ellipse cx="139.732" cy="151.696" rx="52.3206" ry="11.2116" fill="#6B6B6B" fill-opacity="0.39"/>
</g>
<path fill-rule="evenodd" clip-rule="evenodd" d="M36.8004 212.666C33.6877 216.675 31.8324 221.043 29.6685 225.551C29.246 226.431 29.619 227.485 30.4988 227.908C31.3792 228.332 32.4369 227.959 32.86 227.079C34.9117 222.805 36.6423 218.639 39.5981 214.831C40.1962 214.061 40.0548 212.949 39.2815 212.354C38.5111 211.754 37.3979 211.896 36.8004 212.666Z" fill="black"/>
<path fill-rule="evenodd" clip-rule="evenodd" d="M31.2451 199.745C20.6574 203.261 9.6307 208.937 0.702864 215.649C-0.0762701 216.236 -0.231669 217.344 0.357463 218.121C0.946596 218.898 2.05586 219.057 2.835 218.47C11.4676 211.98 22.132 206.491 32.368 203.095C33.2941 202.786 33.7938 201.786 33.4834 200.863C33.173 199.94 32.1712 199.436 31.2451 199.745Z" fill="black"/>
<path fill-rule="evenodd" clip-rule="evenodd" d="M32.6716 191.396C26.2848 187.198 18.322 185.974 10.8401 185.922C9.86254 185.919 9.06677 186.704 9.06327 187.674C9.05792 188.65 9.84738 189.445 10.8225 189.454C17.6376 189.499 24.9134 190.52 30.7307 194.343C31.5467 194.879 32.6444 194.653 33.1788 193.842C33.7138 193.031 33.487 191.933 32.6716 191.396Z" fill="black"/>
<circle cx="244.955" cy="24.083" r="6.02076" fill="#FF8F6B"/>
<defs>
<filter id="filter0_f_1_1537" x="66.6496" y="119.722" width="146.166" height="63.9473" filterUnits="userSpaceOnUse" color-interpolation-filters="sRGB">
<feFlood flood-opacity="0" result="BackgroundImageFix"/>
<feBlend mode="normal" in="SourceGraphic" in2="BackgroundImageFix" result="shape"/>
<feGaussianBlur stdDeviation="10.3453" result="effect1_foregroundBlur_1_1537"/>
</filter>
</defs>
</svg>
