<svg width="40" height="26" viewBox="0 0 40 26" fill="none" xmlns="http://www.w3.org/2000/svg">
<path d="M31.3465 21.4843H1.75082C0.78384 21.4843 0 20.7005 0 19.7335V1.75082C0 0.78384 0.78384 0 1.75082 0H31.3465C32.3135 0 33.0973 0.78384 33.0973 1.75082V19.7335C33.0973 20.7005 32.3134 21.4843 31.3465 21.4843Z" fill="#AC9EF9"/>
<path d="M0 4.66699H33.0973V8.70113H0V4.66699Z" fill="#6262F4"/>
<path d="M11.5029 13.5575H4.50594C4.38985 13.5575 4.27852 13.5114 4.19644 13.4293C4.11435 13.3473 4.06824 13.2359 4.06824 13.1198C4.06824 13.0037 4.11435 12.8924 4.19644 12.8103C4.27852 12.7282 4.38985 12.6821 4.50594 12.6821H11.5029C11.619 12.6821 11.7303 12.7282 11.8124 12.8103C11.8945 12.8924 11.9406 13.0037 11.9406 13.1198C11.9406 13.2359 11.8945 13.3473 11.8124 13.4293C11.7303 13.5114 11.619 13.5575 11.5029 13.5575ZM14.1865 17.5035H4.50594C4.38985 17.5035 4.27852 17.4574 4.19644 17.3753C4.11435 17.2932 4.06824 17.1819 4.06824 17.0658C4.06824 16.9497 4.11435 16.8384 4.19644 16.7563C4.27852 16.6742 4.38985 16.6281 4.50594 16.6281H14.1865C14.3025 16.6281 14.4139 16.6742 14.496 16.7563C14.578 16.8384 14.6242 16.9497 14.6242 17.0658C14.6242 17.1819 14.578 17.2932 14.496 17.3753C14.4139 17.4574 14.3025 17.5035 14.1865 17.5035ZM27.7159 17.4487H22.1286C21.6451 17.4487 21.2532 17.0568 21.2532 16.5733V13.6123C21.2532 13.1288 21.6451 12.7369 22.1286 12.7369H27.7159C28.1994 12.7369 28.5913 13.1288 28.5913 13.6123V16.5733C28.5913 17.0568 28.1994 17.4487 27.7159 17.4487Z" fill="white"/>
<path d="M31.9494 25.0673C36.3956 25.0673 40.0001 21.4537 40.0001 16.9961C40.0001 12.5384 36.3956 8.9248 31.9494 8.9248C27.5031 8.9248 23.8987 12.5384 23.8987 16.9961C23.8987 21.4537 27.5031 25.0673 31.9494 25.0673Z" fill="#35C9AD"/>
<path d="M35.5271 16.5579H32.3868V13.4084C32.3868 13.2923 32.3407 13.181 32.2586 13.0989C32.1765 13.0168 32.0652 12.9707 31.9491 12.9707C31.833 12.9707 31.7217 13.0168 31.6396 13.0989C31.5575 13.181 31.5114 13.2923 31.5114 13.4084V16.5579H28.3709C28.2548 16.5579 28.1435 16.6041 28.0614 16.6861C27.9793 16.7682 27.9332 16.8796 27.9332 16.9957C27.9332 17.1117 27.9793 17.2231 28.0614 17.3052C28.1435 17.3872 28.2548 17.4334 28.3709 17.4334H31.5114V20.5829C31.5114 20.699 31.5575 20.8103 31.6396 20.8924C31.7217 20.9745 31.833 21.0206 31.9491 21.0206C32.0652 21.0206 32.1765 20.9745 32.2586 20.8924C32.3407 20.8103 32.3868 20.699 32.3868 20.5829V17.4334H35.5271C35.6432 17.4334 35.7545 17.3872 35.8366 17.3052C35.9187 17.2231 35.9648 17.1117 35.9648 16.9957C35.9648 16.8796 35.9187 16.7682 35.8366 16.6861C35.7545 16.6041 35.6432 16.5579 35.5271 16.5579Z" fill="white"/>
</svg>
