<svg width="48" height="48" viewBox="0 0 48 48" fill="none" xmlns="http://www.w3.org/2000/svg">
<g clip-path="url(#clip0_1_969)">
<path d="M47.741 13.895C47.7299 13.8833 47.7185 13.8719 47.7068 13.8608L37.7984 5.05435C37.708 4.97197 37.6024 4.90798 37.4876 4.86598L30.3199 2.3041C30.1814 2.25381 30.033 2.23672 29.8867 2.25422C29.7404 2.27172 29.6002 2.32331 29.4774 2.40485C29.3547 2.48638 29.2528 2.59558 29.1799 2.72368C29.107 2.85177 29.0652 2.99517 29.0578 3.14236C29.0578 3.34957 28.747 8.12485 23.9717 8.2002C19.1682 8.12485 18.8668 3.34957 18.8574 3.14236C18.8496 2.99631 18.8078 2.85408 18.7355 2.72696C18.6632 2.59983 18.5622 2.4913 18.4407 2.40995C18.3191 2.32861 18.1803 2.2767 18.0352 2.25832C17.8901 2.23995 17.7427 2.25562 17.6047 2.3041L10.4465 4.89424C10.3316 4.93627 10.2261 5.0002 10.1357 5.08261L0.293158 13.8608C0.200537 13.9488 0.126785 14.0547 0.076387 14.1721C0.0259893 14.2895 0 14.4159 0 14.5437C0 14.6714 0.0259893 14.7979 0.076387 14.9152C0.126785 15.0326 0.200537 15.1385 0.293158 15.2265L8.12951 23.1477V44.8106C8.12951 45.0604 8.22874 45.3 8.40538 45.4767C8.58201 45.6533 8.82158 45.7525 9.07138 45.7525H38.9286C39.1784 45.7525 39.418 45.6533 39.5946 45.4767C39.7713 45.3 39.8705 45.0604 39.8705 44.8106V23.1477L47.7068 15.2265C47.7965 15.1413 47.8685 15.0393 47.9188 14.9263C47.969 14.8133 47.9965 14.6915 47.9997 14.5678C48.0029 14.4442 47.9817 14.3211 47.9373 14.2057C47.8929 14.0902 47.8262 13.9846 47.741 13.895ZM39.8422 20.4633V16.0931C39.8422 15.8433 39.743 15.6037 39.5664 15.4271C39.3897 15.2504 39.1502 15.1512 38.9004 15.1512C38.6506 15.1512 38.411 15.2504 38.2344 15.4271C38.0577 15.6037 37.9585 15.8433 37.9585 16.0931V43.8217H9.97557V16.0931C9.97557 15.8433 9.87634 15.6037 9.69971 15.4271C9.52307 15.2504 9.2835 15.1512 9.0337 15.1512C8.7839 15.1512 8.54434 15.2504 8.3677 15.4271C8.19107 15.6037 8.09183 15.8433 8.09183 16.0931V20.4728L2.29934 14.6049L11.2659 6.58018L17.162 4.45156C17.8925 8.21503 21.5355 10.6739 25.299 9.94348C28.0783 9.40402 30.2514 7.2309 30.7909 4.45156L36.687 6.58018L45.6253 14.6049L39.8422 20.4633Z" fill="black"/>
</g>
<defs>
<clipPath id="clip0_1_969">
<rect width="48" height="48" fill="white"/>
</clipPath>
</defs>
</svg>
