<svg width="17" height="17" viewBox="0 0 17 17" fill="none" xmlns="http://www.w3.org/2000/svg">
<mask id="mask0_0_5" style="mask-type:alpha" maskUnits="userSpaceOnUse" x="0" y="0" width="21" height="21">
<rect width="20.3107" height="20.3107" rx="5.95238" fill="#0ACF83"/>
</mask>
<g mask="url(#mask0_0_5)">
<path d="M13.1158 9.67193C13.5124 11.1519 12.6324 12.6737 11.1503 13.0708C9.66826 13.4679 8.14531 12.5901 7.74874 11.11C7.35217 9.63003 8.23216 8.10831 9.71424 7.71118C11.1963 7.31406 12.7193 8.19192 13.1158 9.67193Z" fill="white"/>
<path fill-rule="evenodd" clip-rule="evenodd" d="M-0.231431 1.52253C-0.6079 1.89854 -0.608112 2.50797 -0.231906 2.88372L4.49164 7.60156C3.85298 8.95511 3.67197 10.5326 4.08943 12.0906C5.02677 15.5888 8.62647 17.6637 12.1296 16.7251C15.6327 15.7864 17.7126 12.1896 16.7753 8.69142C15.8379 5.1932 12.2383 3.11826 8.73515 4.05692C8.20773 4.19824 7.71257 4.39982 7.2551 4.65224L2.62627 0.0289982C2.25006 -0.346753 1.6399 -0.346541 1.26343 0.0294732L-0.231431 1.52253ZM11.4115 14.0453C13.4326 13.5038 14.6325 11.4287 14.0918 9.41053C13.551 7.39233 11.4742 6.19525 9.45321 6.73678C7.43219 7.27831 6.23221 9.35339 6.77299 11.3716C7.31376 13.3898 9.39051 14.5869 11.4115 14.0453Z" fill="white"/>
</g>
</svg>
