<svg width="48" height="30" viewBox="0 0 48 30" fill="none" xmlns="http://www.w3.org/2000/svg">
<path d="M17.5106 3.14571H30.4892V26.2707H17.5106V3.14571Z" fill="#FF5F00"/>
<path d="M18.335 14.7085C18.335 10.01 20.5598 5.84253 23.9795 3.14591C21.4663 1.18481 18.2939 0 14.8329 0C6.63342 0 0 6.57787 0 14.7085C0 22.8389 6.63342 29.417 14.8327 29.417C18.2937 29.417 21.4661 28.2322 23.9795 26.2709C20.5598 23.6152 18.335 19.407 18.335 14.7085Z" fill="#EB001B"/>
<path d="M48 14.7085C48 22.8389 41.3666 29.417 33.1673 29.417C29.7063 29.417 26.5338 28.2322 24.0205 26.2709C27.4815 23.5745 29.6652 19.407 29.6652 14.7085C29.6652 10.01 27.4402 5.84253 24.0205 3.14591C26.5337 1.18481 29.7063 0 33.1673 0C41.3666 0 48 6.61882 48 14.7085Z" fill="#F79E1B"/>
</svg>
