<svg width="328" height="141" viewBox="0 0 328 141" fill="none" xmlns="http://www.w3.org/2000/svg">
<path fill-rule="evenodd" clip-rule="evenodd" d="M0.5 20.5C0.5 9.4543 9.4543 0.5 20.5 0.5H307.5C318.546 0.5 327.5 9.45431 327.5 20.5V58.5C320.873 58.5 315.5 63.8726 315.5 70.5C315.5 77.1274 320.873 82.5 327.5 82.5V120.5C327.5 131.546 318.546 140.5 307.5 140.5H20.5C9.4543 140.5 0.5 131.546 0.5 120.5V82.5C7.12742 82.5 12.5 77.1274 12.5 70.5C12.5 63.8726 7.12742 58.5 0.5 58.5V20.5Z" fill="white"/>
<path d="M327.5 58.5V59H328V58.5H327.5ZM327.5 82.5H328V82H327.5V82.5ZM0.5 82.5V82H0V82.5H0.5ZM0.5 58.5H0V59H0.5V58.5ZM20.5 0C9.17816 0 0 9.17816 0 20.5H1C1 9.73045 9.73045 1 20.5 1V0ZM307.5 0H20.5V1H307.5V0ZM328 20.5C328 9.17816 318.822 0 307.5 0V1C318.27 1 327 9.73045 327 20.5H328ZM328 58.5V20.5H327V58.5H328ZM327.5 58C320.596 58 315 63.5964 315 70.5H316C316 64.1487 321.149 59 327.5 59V58ZM315 70.5C315 77.4036 320.596 83 327.5 83V82C321.149 82 316 76.8513 316 70.5H315ZM328 120.5V82.5H327V120.5H328ZM307.5 141C318.822 141 328 131.822 328 120.5H327C327 131.27 318.27 140 307.5 140V141ZM20.5 141H307.5V140H20.5V141ZM0 120.5C0 131.822 9.17815 141 20.5 141V140C9.73044 140 1 131.27 1 120.5H0ZM0 82.5V120.5H1V82.5H0ZM12 70.5C12 76.8513 6.85127 82 0.5 82V83C7.40356 83 13 77.4036 13 70.5H12ZM0.5 59C6.85127 59 12 64.1487 12 70.5H13C13 63.5964 7.40356 58 0.5 58V59ZM0 20.5V58.5H1V20.5H0Z" fill="black"/>
</svg>
