<svg width="40" height="23" viewBox="0 0 40 23" fill="none" xmlns="http://www.w3.org/2000/svg">
<path d="M38.721 22.6794H1.27898C0.572578 22.6794 0 22.1067 0 21.4004V1.27898C0 0.572656 0.572578 0 1.27898 0H38.721C39.4273 0 40 0.572578 40 1.27898V21.4004C40 22.1067 39.4274 22.6794 38.721 22.6794Z" fill="#5EA570"/>
<path d="M38.721 0H37.0291C37.7355 0 38.308 0.572578 38.308 1.27898V21.4004C38.308 22.1067 37.7355 22.6794 37.0291 22.6794H38.721C39.4273 22.6794 40 22.1067 40 21.4004V1.27898C40 0.572656 39.4274 0 38.721 0Z" fill="#528E61"/>
<path d="M35.5402 16.1624C35.5925 16.1581 35.6413 16.1343 35.6769 16.0957C35.7124 16.057 35.7321 16.0064 35.732 15.9539V6.72562C35.7321 6.67313 35.7123 6.62255 35.6768 6.58392C35.6413 6.54529 35.5925 6.52144 35.5402 6.51711C34.4139 6.42469 33.5162 5.5257 33.4256 4.39891C33.4214 4.34765 33.3982 4.29984 33.3604 4.265C33.3225 4.23016 33.273 4.21085 33.2216 4.21094H6.78251C6.73002 4.21092 6.67943 4.23063 6.6408 4.26618C6.60218 4.30172 6.57833 4.3505 6.57399 4.40281C6.48165 5.52773 5.58462 6.42477 4.4597 6.51711C4.40736 6.52139 4.35856 6.54522 4.323 6.58386C4.28745 6.6225 4.26775 6.67311 4.26782 6.72562V15.9539C4.2678 16.0064 4.28752 16.057 4.32306 16.0956C4.35861 16.1342 4.40738 16.1581 4.4597 16.1624C5.58462 16.2548 6.48165 17.1518 6.57399 18.2767C6.57828 18.3291 6.60211 18.3779 6.64075 18.4134C6.67939 18.449 6.73 18.4687 6.78251 18.4686H33.2174C33.2698 18.4686 33.3204 18.4489 33.3591 18.4134C33.3977 18.3778 33.4215 18.329 33.4259 18.2767C33.5182 17.1518 34.4152 16.2548 35.5402 16.1624Z" fill="#8BC852"/>
<path d="M20 20.3995C25.0036 20.3995 29.0599 16.3432 29.0599 11.3396C29.0599 6.33602 25.0036 2.27979 20 2.27979C14.9964 2.27979 10.9402 6.33602 10.9402 11.3396C10.9402 16.3432 14.9964 20.3995 20 20.3995Z" fill="#CBE7AF"/>
<path d="M21.1622 10.7172C20.9555 10.6444 20.7496 10.5691 20.5447 10.4914V7.27514C21.09 7.38826 21.4158 7.66662 21.4424 7.69006C21.561 7.79522 21.7162 7.84953 21.8744 7.84125C22.0327 7.83298 22.1814 7.76279 22.2884 7.64583C22.3953 7.52888 22.452 7.37455 22.4462 7.21616C22.4404 7.05777 22.3725 6.90804 22.2572 6.79928C22.2198 6.7649 21.584 6.19272 20.5447 6.05139V5.36873C20.5447 5.20865 20.4811 5.05512 20.3679 4.94193C20.2547 4.82873 20.1012 4.76514 19.9411 4.76514C19.781 4.76514 19.6275 4.82873 19.5143 4.94193C19.4011 5.05512 19.3375 5.20865 19.3375 5.36873V6.09779C19.2241 6.12137 19.1118 6.14988 19.0009 6.18326C18.0793 6.46084 17.3905 7.25014 17.2035 8.24318C17.0332 9.14678 17.3215 10.0172 17.9558 10.5147C18.3033 10.7872 18.7378 11.0368 19.3375 11.3015V15.3397C18.7879 15.3073 18.4261 15.1865 17.8166 14.7877C17.6827 14.7037 17.5211 14.6756 17.3667 14.7094C17.2122 14.7433 17.0772 14.8363 16.9906 14.9686C16.9041 15.1009 16.8728 15.2619 16.9037 15.417C16.9345 15.5721 17.025 15.7088 17.1556 15.7979C18.0047 16.3534 18.5801 16.5104 19.3375 16.5473V17.3107C19.3375 17.4708 19.4011 17.6243 19.5143 17.7375C19.6275 17.8507 19.781 17.9143 19.9411 17.9143C20.1012 17.9143 20.2547 17.8507 20.3679 17.7375C20.4811 17.6243 20.5447 17.4708 20.5447 17.3107V16.5013C22.0221 16.2319 22.8848 15.0233 23.0746 13.8945C23.3158 12.4602 22.5651 11.213 21.1622 10.7172ZM18.7009 9.56482C18.4226 9.34654 18.3033 8.92576 18.3898 8.4667C18.4702 8.0399 18.7616 7.52256 19.3375 7.34318V9.96365C19.0961 9.83717 18.8788 9.70428 18.7009 9.56482ZM21.884 13.6944C21.7765 14.3343 21.3209 15.0157 20.5447 15.2579V11.7783C20.6151 11.8038 20.6861 11.8294 20.7598 11.8554C22.0153 12.2991 21.9377 13.3752 21.884 13.6944Z" fill="#5EA570"/>
</svg>
