<svg width="298" height="252" viewBox="0 0 298 252" fill="none" xmlns="http://www.w3.org/2000/svg">
<path d="M162.334 252C227.332 252 280.024 199.308 280.024 134.31C280.024 69.3113 227.332 16.6196 162.334 16.6196C97.3353 16.6196 44.6436 69.3113 44.6436 134.31C44.6436 199.308 97.3353 252 162.334 252Z" fill="url(#paint0_linear_0_31)"/>
<path d="M91.3845 179.883L140.838 44.0874L245.124 154.354L124.001 209.956C104.599 218.863 84.0791 199.944 91.3845 179.883Z" fill="#0AA066"/>
<ellipse cx="194.149" cy="98.5407" rx="17.4049" ry="76.2872" transform="rotate(-43.1847 194.149 98.5407)" fill="black"/>
<mask id="mask0_0_31" style="mask-type:alpha" maskUnits="userSpaceOnUse" x="89" y="44" width="157" height="169">
<path d="M91.3845 179.883L140.838 44.0874L245.124 154.354L124.001 209.956C104.599 218.863 84.0791 199.944 91.3845 179.883Z" fill="#17CB9E"/>
</mask>
<g mask="url(#mask0_0_31)">
<path fill-rule="evenodd" clip-rule="evenodd" d="M138.519 134.384C117.625 107.021 107.053 74.4 103.644 52.4989L120.469 49.8794C123.538 69.5933 133.225 99.3943 152.052 124.05C170.702 148.474 197.988 167.52 236.901 167.52V184.548C191.488 184.548 159.59 161.979 138.519 134.384Z" fill="black"/>
<path fill-rule="evenodd" clip-rule="evenodd" d="M140.762 129.151C119.868 101.789 109.296 69.1674 105.887 47.2663L122.711 44.6469C125.781 64.3607 135.468 94.1617 154.295 118.818C172.945 143.242 200.231 162.288 239.144 162.288V179.315C193.73 179.315 161.833 156.746 140.762 129.151Z" fill="white"/>
<path fill-rule="evenodd" clip-rule="evenodd" d="M113.849 168.773C92.9554 141.41 82.3837 108.789 78.9739 86.8874L95.7988 84.268C98.868 103.982 108.555 133.783 127.383 158.439C146.033 182.863 173.318 201.909 212.231 201.909V218.936C166.818 218.936 134.921 196.367 113.849 168.773Z" fill="white"/>
</g>
<circle cx="186.873" cy="190.901" r="30.0486" fill="#FF0000"/>
<path fill-rule="evenodd" clip-rule="evenodd" d="M199.033 181.783C200.196 182.967 200.18 184.869 198.996 186.033L184.731 200.056C183.561 201.205 181.687 201.205 180.518 200.056L174.751 194.387C173.567 193.223 173.551 191.321 174.714 190.137C175.878 188.954 177.78 188.938 178.964 190.101L182.624 193.699L194.783 181.747C195.967 180.584 197.869 180.6 199.033 181.783Z" fill="white"/>
<path fill-rule="evenodd" clip-rule="evenodd" d="M246.099 47.6218C248.205 42.2735 248.829 36.9351 249.745 31.3467C249.923 30.2553 249.182 29.2287 248.091 29.0488C246.999 28.8689 245.968 29.611 245.789 30.7023C244.921 36.0014 244.368 41.0806 242.369 46.161C241.964 47.1885 242.472 48.3518 243.502 48.7518C244.53 49.1584 245.695 48.6494 246.099 47.6218Z" fill="black"/>
<path fill-rule="evenodd" clip-rule="evenodd" d="M256.254 59.8944C266.64 52.6997 276.816 43.0175 284.38 32.8779C285.04 31.9921 284.855 30.7378 283.967 30.0813C283.08 29.4248 281.823 29.6058 281.164 30.4917C273.849 40.2952 264.009 49.6594 253.966 56.6113C253.058 57.2422 252.834 58.4887 253.465 59.393C254.097 60.2974 255.346 60.5252 256.254 59.8944Z" fill="black"/>
<path fill-rule="evenodd" clip-rule="evenodd" d="M257.364 69.4227C265.642 71.95 274.687 70.7433 282.834 68.4154C283.898 68.1078 284.513 67.001 284.207 65.9455C283.902 64.8833 282.791 64.2707 281.728 64.5718C274.307 66.6947 266.074 67.9026 258.534 65.602C257.476 65.2788 256.355 65.8744 256.033 66.9264C255.71 67.9783 256.306 69.0996 257.364 69.4227Z" fill="black"/>
<circle cx="257.988" cy="83.7281" r="6.00971" fill="black"/>
<circle cx="207.907" cy="21.6277" r="6.00971" fill="#FFDA45"/>
<path d="M219.468 48.1311C218.95 45.9836 215.896 45.9836 215.377 48.1311L214.706 50.9128C214.52 51.6802 213.921 52.2794 213.154 52.4646L210.372 53.1361C208.225 53.6545 208.225 56.7091 210.372 57.2275L213.154 57.8989C213.921 58.0842 214.52 58.6834 214.706 59.4508L215.377 62.2324C215.896 64.3799 218.95 64.3799 219.468 62.2324L220.14 59.4508C220.325 58.6834 220.924 58.0842 221.692 57.8989L224.473 57.2275C226.621 56.7091 226.621 53.6545 224.473 53.1361L221.692 52.4646C220.924 52.2794 220.325 51.6802 220.14 50.9128L219.468 48.1311Z" fill="#0AA066"/>
<path fill-rule="evenodd" clip-rule="evenodd" d="M193.85 1.90625C194.457 3.45066 193.698 5.19499 192.153 5.8023C187.745 7.5358 182.095 13.1196 178.323 20.0696C175.452 25.3598 174.057 30.7026 174.643 35.075C176.407 32.557 178.519 30.4917 180.968 29.1649C185.359 26.7865 190.369 27.0389 195.219 30.3441C199.456 33.2319 201.184 37.3411 200.727 41.4355C200.289 45.3502 197.901 48.8892 194.662 51.1124C191.373 53.3689 187.007 54.4095 182.504 53.0303C179.951 52.2485 177.502 50.7368 175.261 48.4412C173.124 56.763 173.201 67.1869 176.734 76.4061C177.328 77.9557 176.553 79.6934 175.003 80.2872C173.454 80.8811 171.716 80.1062 171.122 78.5566C166.463 66.3982 167.068 52.5122 170.868 42.3988C170.76 42.2038 170.653 42.0061 170.546 41.8058C166.549 34.2591 168.943 24.7549 173.041 17.2029C177.172 9.59259 183.721 2.66024 189.954 0.209472C191.498 -0.397844 193.243 0.361827 193.85 1.90625ZM177.615 41.8822C179.885 45.1061 182.239 46.6642 184.263 47.284C186.812 48.0646 189.298 47.5047 191.261 46.1573C193.273 44.7765 194.537 42.7079 194.754 40.7679C194.951 39.0076 194.336 37.015 191.834 35.3103C188.664 33.1497 186.06 33.2415 183.831 34.4491C181.607 35.6533 179.406 38.1732 177.615 41.8822Z" fill="#FF0000"/>
<path fill-rule="evenodd" clip-rule="evenodd" d="M290.85 119.427C259.354 107.72 235.25 122.277 227.455 130.511C225.554 132.519 222.384 132.606 220.375 130.705C218.367 128.803 218.28 125.633 220.182 123.625C230.08 113.169 258.256 96.6269 294.34 110.039C296.933 111.002 298.253 113.885 297.289 116.478C296.326 119.07 293.443 120.391 290.85 119.427Z" fill="#FFDA45"/>
<path fill-rule="evenodd" clip-rule="evenodd" d="M258.808 129.951C259.511 129.694 260.251 129.352 260.821 128.857C261.498 128.269 261.774 127.511 261.959 126.714C262.197 125.689 262.291 124.598 262.579 123.572C262.686 123.191 262.891 123.047 262.979 122.983C263.202 122.821 263.427 122.778 263.639 122.794C263.889 122.813 264.234 122.911 264.461 123.343C264.493 123.405 264.535 123.499 264.563 123.628C264.584 123.723 264.597 124.018 264.619 124.141C264.673 124.441 264.719 124.742 264.762 125.044C264.905 126.05 264.987 126.904 265.437 127.828C266.048 129.082 266.661 129.85 267.491 130.19C268.294 130.518 269.254 130.457 270.481 130.199C270.598 130.17 270.713 130.145 270.828 130.125C271.368 130.027 271.886 130.392 271.992 130.946C272.098 131.499 271.754 132.039 271.218 132.16C271.106 132.186 270.996 132.21 270.887 132.232C269.229 132.653 267.31 134.158 266.195 135.476C265.851 135.883 265.348 137.019 264.834 137.744C264.455 138.278 264.03 138.631 263.672 138.755C263.433 138.839 263.231 138.826 263.064 138.784C262.821 138.722 262.62 138.588 262.466 138.373C262.382 138.255 262.304 138.098 262.267 137.897C262.249 137.801 262.247 137.555 262.247 137.444C262.143 137.074 262.015 136.713 261.921 136.339C261.699 135.449 261.262 134.885 260.744 134.141C260.258 133.444 259.737 133.006 258.973 132.656C258.874 132.631 258.072 132.43 257.789 132.314C257.375 132.144 257.178 131.86 257.107 131.706C256.985 131.447 256.973 131.22 256.997 131.03C257.033 130.751 257.155 130.512 257.371 130.319C257.506 130.199 257.706 130.082 257.974 130.025C258.181 129.981 258.731 129.955 258.808 129.951ZM263.512 128.5C263.549 128.585 263.589 128.671 263.631 128.757C264.526 130.594 265.527 131.62 266.744 132.118L266.785 132.134C265.971 132.755 265.234 133.449 264.671 134.114C264.439 134.388 264.132 134.958 263.8 135.541C263.499 134.535 263.006 133.823 262.386 132.933C261.913 132.253 261.417 131.742 260.807 131.325C261.28 131.076 261.732 130.783 262.125 130.442C262.779 129.874 263.212 129.215 263.512 128.5Z" fill="#FF0000"/>
<path d="M84.492 132.698L84.4921 132.698C85.1687 132.089 85.2268 131.042 84.6179 130.361C84.0122 129.677 82.9656 129.618 82.2873 130.229C77.7655 134.299 75.1882 139.347 74.4436 145.377C74.3297 146.284 74.9759 147.112 75.8768 147.227L75.8775 147.227C76.7848 147.341 77.6109 146.696 77.7196 145.788C78.3645 140.564 80.5812 136.216 84.492 132.698Z" fill="black" stroke="black"/>
<path d="M60.8112 144.248C64.55 146.792 67.1471 152.979 69.077 159.795C71.6922 169.026 72.9566 179.457 73.5503 184.355C73.6391 185.087 73.7128 185.696 73.7739 186.158L60.8112 144.248ZM60.8112 144.248L60.5295 144.663C60.5295 144.663 60.5295 144.663 60.5295 144.663L60.8112 144.248ZM29.0548 153.276L29.0548 153.276C28.8383 154.348 28.3462 155.262 27.5638 155.824L29.0548 153.276ZM29.0548 153.276C29.2611 152.252 29.2146 151.039 29.0485 149.909M29.0548 153.276L29.0485 149.909M29.0485 149.909C28.8991 148.894 28.6481 147.913 28.3699 147.152L29.0485 149.909ZM76.8486 185.098L76.3511 185.041L76.8484 185.1C76.8485 185.1 76.8486 185.099 76.8486 185.098ZM24.5086 147.036C23.8532 148.16 23.2886 149.342 22.8362 150.572C22.6154 151.171 22.2405 152.469 22.3226 153.561C22.4085 154.754 22.9885 155.787 24.2059 156.181L24.2062 156.181C25.6305 156.64 26.7429 156.415 27.5635 155.824L24.5086 147.036ZM1.23599 140.497C1.23588 140.497 1.23576 140.497 1.23564 140.497C1.23556 140.497 1.23548 140.497 1.2354 140.497L1.51398 140.914L1.23599 140.497ZM26.7897 144.581C26.6833 144.447 26.5756 144.314 26.4665 144.183C26.36 144.317 26.2549 144.452 26.1512 144.587C26.2602 144.72 26.3679 144.854 26.4741 144.99C26.5778 144.853 26.683 144.717 26.7897 144.581ZM75.4232 177.088C75.3599 176.65 75.2939 176.203 75.225 175.747C75.1176 176.186 75.0139 176.626 74.9143 177.068C74.9853 177.558 75.053 178.036 75.1175 178.501C75.2146 178.028 75.3166 177.557 75.4232 177.088ZM97.8097 128.382C97.8093 128.382 97.809 128.382 97.8087 128.381C97.8083 128.381 97.8079 128.381 97.8076 128.381L97.4903 128.768L97.8097 128.382ZM73.6936 187.902C73.694 187.902 73.6943 187.903 73.6947 187.904C73.6958 187.905 73.6969 187.907 73.6979 187.909L74.119 187.638L73.6936 187.902ZM30.8064 144.298C30.8064 144.298 30.8064 144.298 30.8064 144.298L30.4546 143.941L30.8064 144.298ZM25.8192 152.613L25.8191 152.614C25.7842 152.787 25.754 152.911 25.7157 153.005C25.6868 153.077 25.6623 153.108 25.6478 153.122C25.6417 153.122 25.6325 153.122 25.6193 153.122C25.6172 153.122 25.6151 153.122 25.613 153.121C25.613 153.118 25.6131 153.115 25.6132 153.112C25.6393 152.64 25.7933 152.118 25.9068 151.795C25.8983 152.086 25.8703 152.363 25.8192 152.613Z" fill="black" stroke="black"/>
<defs>
<linearGradient id="paint0_linear_0_31" x1="161.427" y1="-21.7032" x2="163.837" y2="391.607" gradientUnits="userSpaceOnUse">
<stop stop-color="#B5E0D5"/>
<stop offset="1" stop-color="#F2F6F5"/>
</linearGradient>
</defs>
</svg>
