<svg width="20" height="20" viewBox="0 0 20 20" fill="none" xmlns="http://www.w3.org/2000/svg">
<g opacity="0.8">
<path d="M2.5 5H4.16667H17.5" stroke="#FF0000" stroke-width="1.5" stroke-linecap="round" stroke-linejoin="round"/>
<path d="M6.66663 4.99984V3.33317C6.66663 2.89114 6.84222 2.46722 7.15478 2.15466C7.46734 1.8421 7.89127 1.6665 8.33329 1.6665H11.6666C12.1087 1.6665 12.5326 1.8421 12.8451 2.15466C13.1577 2.46722 13.3333 2.89114 13.3333 3.33317V4.99984M15.8333 4.99984V16.6665C15.8333 17.1085 15.6577 17.5325 15.3451 17.845C15.0326 18.1576 14.6087 18.3332 14.1666 18.3332H5.83329C5.39127 18.3332 4.96734 18.1576 4.65478 17.845C4.34222 17.5325 4.16663 17.1085 4.16663 16.6665V4.99984H15.8333Z" stroke="#FF0000" stroke-width="1.5" stroke-linecap="round" stroke-linejoin="round"/>
<path d="M8.33337 9.1665V14.1665" stroke="#FF0000" stroke-width="1.5" stroke-linecap="round" stroke-linejoin="round"/>
<path d="M11.6666 9.1665V14.1665" stroke="#FF0000" stroke-width="1.5" stroke-linecap="round" stroke-linejoin="round"/>
</g>
</svg>
