<svg width="40" height="12" viewBox="0 0 40 12" fill="none" xmlns="http://www.w3.org/2000/svg">
<path d="M31.2275 1.96383C30.2455 1.96383 29.4599 2.2257 28.8052 2.35663L28.6088 3.86236C28.9361 3.73143 29.8527 3.46956 30.6383 3.40409C31.4239 3.40409 31.8821 3.53503 31.7512 4.25516C29.3944 4.25516 27.8232 4.71342 27.4959 6.28462C27.0376 8.90327 29.9181 8.96874 31.0311 7.79035L30.9001 8.51048H32.9951L33.9116 4.25516C34.2389 2.48756 32.6677 1.89836 31.2275 1.96383ZM31.3584 6.35008C31.2275 6.87381 30.7692 7.07021 30.2455 7.13568C29.7872 7.13568 29.3944 6.87381 29.6563 6.35008C29.9181 5.95728 30.5073 5.95728 30.9656 5.95728H31.4893C31.4239 5.89182 31.3584 6.15368 31.3584 6.35008Z" fill="#32A6CE"/>
<path d="M28.6088 3.86285C28.9361 3.73191 29.8527 3.47005 30.6383 3.40458C31.4239 3.40458 31.8821 3.53551 31.7512 4.25564C29.3944 4.25564 27.8232 4.71391 27.4959 6.2851C27.0376 8.90376 29.9181 8.96923 31.0311 7.79083L30.9001 8.51096H32.9951L33.9116 4.25564C34.3044 2.48805 32.6677 2.02979 31.2275 2.02979M31.3584 6.35057C31.2275 6.8743 30.7692 7.0707 30.2455 7.13617C29.7872 7.13617 29.3944 6.8743 29.6563 6.35057C29.9181 5.95777 30.5073 5.95777 30.9656 5.95777H31.4893C31.4239 5.89231 31.3584 6.15417 31.3584 6.35057Z" fill="#1A80AD"/>
<path d="M35.6792 0L33.9771 8.51064H36.072L37.8396 0H35.6792Z" fill="#32A6CE"/>
<path d="M37.1849 0L33.9771 8.51064H36.072L37.8396 0H35.6792H37.1849Z" fill="#1A80AD"/>
<path d="M25.9248 0H22.0622L20.3601 8.51064H22.6514L23.2406 5.89198H24.8773C26.4485 5.89198 27.7578 4.97545 28.0851 3.33879C28.4125 1.44026 27.0377 0 25.9248 0ZM25.8593 2.94599C25.7284 3.53519 25.1392 3.92799 24.55 3.92799H23.5025L23.9608 1.96399H25.0737C25.6629 1.96399 25.9902 2.35679 25.8593 2.94599Z" fill="#32A6CE"/>
<path d="M25.9247 0H23.306L20.2946 8.51064H22.5859L23.1751 5.89198H24.8117C26.3829 5.89198 27.6923 4.97545 28.0196 3.33879C28.4124 1.44026 27.0376 0 25.9247 0ZM25.8592 2.94599C25.7283 3.53519 25.1391 3.92799 24.5499 3.92799H23.5024L23.9607 1.96399H25.0736C25.6628 1.96399 25.9901 2.35679 25.8592 2.94599Z" fill="#1A80AD"/>
<path d="M10.8019 1.96383C9.81988 1.96383 9.03428 2.2257 8.44508 2.35663L8.24869 3.86236C8.51055 3.73143 9.49255 3.46956 10.2781 3.40409C11.0637 3.40409 11.522 3.53503 11.3911 4.25516C9.09975 4.25516 7.52855 4.71342 7.20122 6.28462C6.74296 8.90327 9.55801 8.96874 10.6709 7.79035L10.54 8.51048H12.6349L13.5515 4.25516C13.8788 2.48756 12.2421 1.89836 10.8019 1.96383ZM10.9983 6.35008C10.8673 6.87381 10.4091 7.07021 9.88535 7.13568C9.42708 7.13568 9.03428 6.87381 9.36162 6.35008C9.62348 5.95728 10.2127 5.95728 10.6055 5.95728H11.1292C11.0637 5.89182 10.9983 6.15368 10.9983 6.35008Z" fill="#21789E"/>
<path d="M8.31424 3.86285C8.5761 3.73191 9.5581 3.47005 10.3437 3.40458C11.1293 3.40458 11.5876 3.53551 11.4566 4.25564C9.1653 4.25564 7.59411 4.71391 7.26677 6.2851C6.80851 8.90376 9.62357 8.96923 10.7365 7.79083L10.5401 8.51096H12.635L13.5516 4.25564C13.9444 2.48805 12.3077 2.02979 10.8674 2.02979M10.9984 6.35057C10.8674 6.8743 10.4092 7.0707 9.88543 7.13617C9.42717 7.13617 9.03437 6.8743 9.3617 6.35057C9.62357 5.95777 10.2128 5.95777 10.6056 5.95777H11.1293C11.0638 5.89231 10.9984 6.15417 10.9984 6.35057Z" fill="#1A5B80"/>
<path d="M14.4026 1.96387H16.4975L16.8248 5.62999L18.9198 1.96387H21.0802L16.1047 11.1292H13.7479L15.2537 8.37958L14.4026 1.96387Z" fill="#21789E"/>
<path d="M16.4975 2.0948L16.8248 5.69546L18.9198 1.96387H21.0802L16.1047 11.1292H13.7479L15.2537 8.44505" fill="#1A5B80"/>
<path d="M5.63011 0H1.70213L0 8.51064H2.29133L2.88052 5.89198H4.51718C6.08838 5.89198 7.39771 4.97545 7.72504 3.33879C8.11784 1.44026 6.74304 0 5.63011 0ZM5.56465 2.94599C5.43371 3.53519 4.84452 3.92799 4.25532 3.92799H3.20786L3.66612 1.96399H4.77905C5.36825 1.96399 5.69558 2.35679 5.56465 2.94599Z" fill="#21789E"/>
<path d="M5.63011 0H3.86252L0 8.51064H2.29133L2.88052 5.89198H4.51718C6.08838 5.89198 7.39771 4.97545 7.72504 3.33879C8.11784 1.44026 6.74304 0 5.63011 0ZM5.56465 2.94599C5.43371 3.53519 4.84452 3.92799 4.25532 3.92799H3.20786L3.66612 1.96399H4.77905C5.36825 1.96399 5.69558 2.35679 5.56465 2.94599Z" fill="#1A5B80"/>
<path d="M10.4092 4.25519C8.64158 4.38613 7.46319 4.90986 7.20132 6.21919C6.74306 8.83784 9.55811 8.90331 10.671 7.72491L10.5401 8.51051H12.635L12.9624 6.93932L10.4092 4.25519ZM10.9984 6.35012C10.8674 6.87385 10.4092 7.07025 9.88545 7.13572C9.42718 7.13572 9.03438 6.87385 9.36171 6.35012C9.62358 5.95732 10.2128 5.95732 10.6056 5.95732H11.1293C11.0638 5.89185 10.9984 6.15372 10.9984 6.35012ZM16.9558 5.56452L16.8249 5.76092L18.1997 7.07025L21.0802 1.96387H18.9198L16.9558 5.56452ZM2.29134 8.51051L2.88054 5.89185L0.196411 8.51051H2.29134Z" fill="#06435E"/>
<path d="M22.5859 8.51069L23.1751 5.7611V5.82657L20.491 8.51069H22.5859ZM30.7692 4.25537C29.0016 4.3863 27.8232 4.91004 27.5613 6.21936C27.1031 8.83802 29.9836 8.90349 31.0965 7.72509L30.9001 8.51069H32.9951L33.3224 6.9395L30.7692 4.25537ZM31.3584 6.3503C31.2275 6.87403 30.7692 7.07043 30.2455 7.1359C29.7872 7.1359 29.3944 6.87403 29.6563 6.3503C29.9181 5.9575 30.5073 5.9575 30.9656 5.9575H31.4893C31.4239 5.89203 31.3584 6.1539 31.3584 6.3503ZM35.4828 4.64817L33.9771 8.51069H36.072L36.6612 5.89203L35.4828 4.64817Z" fill="#2273AA"/>
<path d="M38.2979 1.37514V0.458606H37.9706V0.327672H38.8216V0.458606H38.4943V1.37514H38.2979ZM38.9526 1.37514V0.327672H39.149L39.4108 1.0478C39.4108 1.11327 39.4763 1.17874 39.4763 1.17874C39.4763 1.11327 39.4763 1.11327 39.5418 0.982337L39.8036 0.262207H40V1.30967H39.8691V0.393139L39.5418 1.30967H39.3454L39.018 0.393139V1.30967H38.9526V1.37514Z" fill="#32A6CE"/>
</svg>
