<svg width="72" height="72" viewBox="0 0 72 72" fill="none" xmlns="http://www.w3.org/2000/svg">
<path d="M9 30C9 27.1716 9 25.7574 9.87868 24.8787C10.7574 24 12.1716 24 15 24H57C59.8284 24 61.2426 24 62.1213 24.8787C63 25.7574 63 27.1716 63 30V34.5C63 35.8978 63 36.5967 62.7716 37.1481C62.4672 37.8831 61.8831 38.4672 61.1481 38.7716C60.5967 39 59.8978 39 58.5 39V39C57.1022 39 56.4033 39 55.8519 39.2284C55.1169 39.5328 54.5328 40.1169 54.2284 40.8519C54 41.4033 54 42.1022 54 43.5V54C54 56.8284 54 58.2426 53.1213 59.1213C52.2426 60 50.8284 60 48 60H24C21.1716 60 19.7574 60 18.8787 59.1213C18 58.2426 18 56.8284 18 54V43.5C18 42.1022 18 41.4033 17.7716 40.8519C17.4672 40.1169 16.8831 39.5328 16.1481 39.2284C15.5967 39 14.8978 39 13.5 39V39C12.1022 39 11.4033 39 10.8519 38.7716C10.1169 38.4672 9.53284 37.8831 9.22836 37.1481C9 36.5967 9 35.8978 9 34.5V30Z" stroke="#333333" stroke-width="2"/>
<path d="M15 39H57" stroke="#333333" stroke-width="2" stroke-linecap="round"/>
<path d="M36 21L36 60" stroke="#333333" stroke-width="2" stroke-linecap="round"/>
<path d="M36 21L33.3643 18.3643C30.1654 15.1654 26.2656 12.7552 21.9738 11.3246V11.3246C18.543 10.181 15 12.7346 15 16.351V16.8974C15 19.3474 16.5678 21.5226 18.8921 22.2974L24 24" stroke="#333333" stroke-width="2" stroke-linecap="round"/>
<path d="M36 21L38.6357 18.3643C41.8346 15.1654 45.7344 12.7552 50.0262 11.3246V11.3246C53.457 10.181 57 12.7346 57 16.351V16.8974C57 19.3474 55.4322 21.5226 53.1079 22.2974L48 24" stroke="#333333" stroke-width="2" stroke-linecap="round"/>
</svg>
