<svg width="20" height="20" viewBox="0 0 20 20" fill="none" xmlns="http://www.w3.org/2000/svg">
<path d="M3.7089 11.5903L9.50275 17.033C9.6479 17.1694 9.72047 17.2376 9.79939 17.2721C9.92727 17.3282 10.0727 17.3282 10.2006 17.2721C10.2795 17.2376 10.3521 17.1694 10.4973 17.033L16.2911 11.5903C17.9213 10.059 18.1192 7.539 16.7482 5.77189L16.4904 5.43961C14.8502 3.32565 11.558 3.68018 10.4056 6.09487C10.2428 6.43596 9.75725 6.43596 9.59445 6.09487C8.44198 3.68017 5.14978 3.32565 3.50963 5.43962L3.25183 5.77189C1.8808 7.539 2.07876 10.059 3.7089 11.5903Z" fill="#FF0000" stroke="#FF0000" stroke-width="1.4"/>
</svg>
