<svg width="48" height="16" viewBox="0 0 48 16" fill="none" xmlns="http://www.w3.org/2000/svg">
<path d="M37.4732 3.67916C36.2948 3.67916 35.3521 3.99339 34.5665 4.15051L34.3308 5.95739C34.7236 5.80027 35.8234 5.48603 36.7662 5.40747C37.7089 5.40747 38.2588 5.56459 38.1017 6.42875C35.2735 6.42875 33.3881 6.97866 32.9953 8.8641C32.4454 12.0065 35.902 12.085 37.2375 10.671L37.0804 11.5351H39.5943L40.6941 6.42875C41.0869 4.30763 39.2015 3.6006 37.4732 3.67916ZM37.6303 8.94266C37.4732 9.57114 36.9233 9.80682 36.2948 9.88538C35.7449 9.88538 35.2735 9.57114 35.5878 8.94266C35.902 8.4713 36.609 8.4713 37.159 8.4713H37.7874C37.7089 8.39274 37.6303 8.70698 37.6303 8.94266Z" fill="#32A6CE"/>
<path d="M34.3308 5.95749C34.7236 5.80037 35.8234 5.48613 36.7662 5.40757C37.7089 5.40757 38.2588 5.56469 38.1017 6.42884C35.2735 6.42884 33.3881 6.97876 32.9953 8.8642C32.4454 12.0066 35.902 12.0851 37.2375 10.6711L37.0804 11.5352H39.5943L40.6941 6.42884C41.1655 4.30773 39.2015 3.75781 37.4732 3.75781M37.6303 8.94276C37.4732 9.57123 36.9233 9.80691 36.2948 9.88547C35.7449 9.88547 35.2735 9.57123 35.5878 8.94276C35.902 8.4714 36.609 8.4714 37.159 8.4714H37.7874C37.7089 8.39284 37.6303 8.70708 37.6303 8.94276Z" fill="#1A80AD"/>
<path d="M42.815 1.32227L40.7725 11.535H43.2864L45.4075 1.32227H42.815Z" fill="#32A6CE"/>
<path d="M44.6219 1.32227L40.7725 11.535H43.2864L45.4075 1.32227H42.815H44.6219Z" fill="#1A80AD"/>
<path d="M31.1097 1.32227H26.4747L24.4321 11.535H27.1817L27.8888 8.39264H29.8528C31.7382 8.39264 33.3094 7.29281 33.7022 5.32881C34.095 3.05058 32.4452 1.32227 31.1097 1.32227ZM31.0311 4.85745C30.874 5.56449 30.167 6.03585 29.46 6.03585H28.203L28.7529 3.67906H30.0884C30.7955 3.67906 31.1883 4.15042 31.0311 4.85745Z" fill="#32A6CE"/>
<path d="M31.1097 1.32227H27.9673L24.3535 11.535H27.1031L27.8101 8.39264H29.7741C31.6596 8.39264 33.2308 7.29281 33.6236 5.32881C34.0949 3.05058 32.4452 1.32227 31.1097 1.32227ZM31.0311 4.85745C30.874 5.56449 30.1669 6.03585 29.4599 6.03585H28.2029L28.7529 3.67906H30.0884C30.7954 3.67906 31.1882 4.15042 31.0311 4.85745Z" fill="#1A80AD"/>
<path d="M12.9623 3.67916C11.7839 3.67916 10.8412 3.99339 10.1342 4.15051L9.89847 5.95739C10.2127 5.80027 11.3911 5.48603 12.3338 5.40747C13.2765 5.40747 13.8265 5.56459 13.6693 6.42875C10.9197 6.42875 9.03431 6.97866 8.64152 8.8641C8.0916 12.0065 11.4697 12.085 12.8052 10.671L12.6481 11.5351H15.162L16.2618 6.42875C16.6546 4.30763 14.6906 3.6006 12.9623 3.67916ZM13.198 8.94266C13.0409 9.57114 12.4909 9.80682 11.8625 9.88538C11.3125 9.88538 10.8412 9.57114 11.234 8.94266C11.5482 8.4713 12.2553 8.4713 12.7266 8.4713H13.3551C13.2765 8.39274 13.198 8.70698 13.198 8.94266Z" fill="#21789E"/>
<path d="M9.97708 5.95749C10.2913 5.80037 11.4697 5.48613 12.4124 5.40757C13.3552 5.40757 13.9051 5.56469 13.748 6.42884C10.9984 6.42884 9.11293 6.97876 8.72013 8.8642C8.17021 12.0066 11.5483 12.0851 12.8838 10.6711L12.6481 11.5352H15.162L16.2619 6.42884C16.7332 4.30773 14.7692 3.75781 13.0409 3.75781M13.198 8.94276C13.0409 9.57123 12.491 9.80691 11.8625 9.88547C11.3126 9.88547 10.8412 9.57123 11.234 8.94276C11.5483 8.4714 12.2553 8.4714 12.7267 8.4714H13.3552C13.2766 8.39284 13.198 8.70708 13.198 8.94276Z" fill="#1A5B80"/>
<path d="M17.2832 3.6792H19.7971L20.1899 8.07855L22.7038 3.6792H25.2963L19.3257 14.6776H16.4976L18.3044 11.3781L17.2832 3.6792Z" fill="#21789E"/>
<path d="M19.7971 3.83632L20.1899 8.1571L22.7038 3.6792H25.2963L19.3257 14.6776H16.4976L18.3044 11.4566" fill="#1A5B80"/>
<path d="M6.75614 1.32227H2.04255L0 11.535H2.74959L3.45663 8.39264H5.42062C7.30606 8.39264 8.87725 7.29281 9.27005 5.32881C9.74141 3.05058 8.09165 1.32227 6.75614 1.32227ZM6.67758 4.85745C6.52046 5.56449 5.81342 6.03585 5.10638 6.03585H3.84943L4.39935 3.67906H5.73486C6.4419 3.67906 6.8347 4.15042 6.67758 4.85745Z" fill="#21789E"/>
<path d="M6.75614 1.32227H4.63502L0 11.535H2.74959L3.45663 8.39264H5.42062C7.30606 8.39264 8.87725 7.29281 9.27005 5.32881C9.74141 3.05058 8.09165 1.32227 6.75614 1.32227ZM6.67758 4.85745C6.52046 5.56449 5.81342 6.03585 5.10638 6.03585H3.84943L4.39935 3.67906H5.73486C6.4419 3.67906 6.8347 4.15042 6.67758 4.85745Z" fill="#1A5B80"/>
<path d="M12.4912 6.42879C10.37 6.58591 8.95597 7.21439 8.64173 8.78558C8.09181 11.928 11.4699 12.0065 12.8054 10.5925L12.6483 11.5352H15.1622L15.555 9.64974L12.4912 6.42879ZM13.1982 8.9427C13.0411 9.57118 12.4912 9.80686 11.8627 9.88542C11.3128 9.88542 10.8414 9.57118 11.2342 8.9427C11.5484 8.47134 12.2555 8.47134 12.7268 8.47134H13.3553C13.2768 8.39278 13.1982 8.70702 13.1982 8.9427ZM20.3471 7.99998L20.19 8.23566L21.8398 9.80686L25.2964 3.6792H22.7039L20.3471 7.99998ZM2.74975 11.5352L3.45679 8.39278L0.23584 11.5352H2.74975Z" fill="#06435E"/>
<path d="M27.1033 11.5351L27.8103 8.23559V8.31415L24.5894 11.5351H27.1033ZM36.9232 6.42871C34.8021 6.58583 33.388 7.21431 33.0738 8.7855C32.5239 11.9279 35.9805 12.0065 37.316 10.5924L37.0804 11.5351H39.5943L39.9871 9.64966L36.9232 6.42871ZM37.6303 8.94262C37.4732 9.5711 36.9232 9.80678 36.2948 9.88534C35.7448 9.88534 35.2735 9.5711 35.5877 8.94262C35.902 8.47126 36.609 8.47126 37.1589 8.47126H37.7874C37.7088 8.3927 37.6303 8.70694 37.6303 8.94262ZM42.5795 6.90007L40.7727 11.5351H43.2866L43.9936 8.3927L42.5795 6.90007Z" fill="#2273AA"/>
<path d="M45.9573 2.97223V1.8724H45.5645V1.71528H46.5857V1.8724H46.1929V2.97223H45.9573ZM46.7428 2.97223V1.71528H46.9785L47.2928 2.57943C47.2928 2.65799 47.3713 2.73655 47.3713 2.73655C47.3713 2.658 47.3713 2.65799 47.4499 2.50087L47.7641 1.63672H47.9998V2.89367H47.8427V1.79384L47.4499 2.89367H47.2142L46.8214 1.79384V2.89367H46.7428V2.97223Z" fill="#32A6CE"/>
</svg>
