<svg width="72" height="72" viewBox="0 0 72 72" fill="none" xmlns="http://www.w3.org/2000/svg">
<rect x="0.4" y="0.4" width="71.2" height="71.2" rx="9.6" stroke="#E8E8E8" stroke-width="0.8"/>
<g clip-path="url(#clip0_1_1094)">
<path d="M35.8933 45.9201C35.8933 44.8467 36.755 43.9867 37.83 43.9867C38.9033 43.9867 39.7633 44.8467 39.7633 45.9201C39.7642 46.1743 39.7148 46.4262 39.618 46.6612C39.5212 46.8963 39.3788 47.1099 39.1991 47.2897C39.0195 47.4695 38.806 47.6121 38.571 47.7091C38.3361 47.8061 38.0842 47.8557 37.83 47.8551C37.5756 47.8562 37.3236 47.8069 37.0883 47.7102C36.8531 47.6135 36.6393 47.4712 36.4593 47.2915C36.2793 47.1118 36.1366 46.8982 36.0395 46.6632C35.9423 46.4281 35.8927 46.1744 35.8933 45.9201ZM43.7667 45.9217C43.7667 44.8467 44.6283 43.9851 45.7017 43.9851C46.775 43.9851 47.6367 44.8467 47.6367 45.9201C47.6367 46.9934 46.775 47.8551 45.7033 47.8551C45.449 47.8562 45.1969 47.8069 44.9617 47.7102C44.7264 47.6135 44.5126 47.4712 44.3326 47.2915C44.1526 47.1118 44.0099 46.8982 43.9128 46.6632C43.8157 46.4281 43.766 46.1761 43.7667 45.9217ZM25.5167 45.9217C25.5167 44.8467 26.3783 43.9851 27.4517 43.9851C28.525 43.9851 29.385 44.8467 29.385 45.9201C29.385 46.9934 28.525 47.8551 27.4517 47.8551C27.1975 47.856 26.9456 47.8066 26.7105 47.7097C26.4755 47.6129 26.2619 47.4706 26.082 47.2909C25.9022 47.1112 25.7597 46.8977 25.6626 46.6628C25.5656 46.4278 25.516 46.176 25.5167 45.9217ZM17.6433 45.9217C17.6433 44.8467 18.505 43.9851 19.5783 43.9851C20.6517 43.9851 21.5133 44.8467 21.5133 45.9201C21.5142 46.1744 21.4648 46.4264 21.3678 46.6616C21.2709 46.8968 21.1284 47.1104 20.9485 47.2903C20.7687 47.4702 20.555 47.6127 20.3199 47.7096C20.0847 47.8065 19.8327 47.856 19.5783 47.8551C19.3243 47.8557 19.0726 47.8062 18.8377 47.7093C18.6028 47.6123 18.3894 47.4699 18.2098 47.2903C18.0301 47.1106 17.8877 46.8972 17.7908 46.6624C17.6939 46.4275 17.6427 46.1758 17.6433 45.9217ZM33.5617 42.5017H31.8783V49.2734H33.5617V42.5017ZM21.5 49.2734H23.1833V42.5017H21.5V43.0451C20.9132 42.6367 20.2149 42.4191 19.5 42.4217C17.5633 42.4217 16 43.9851 16 45.9217C16 47.8684 17.5633 49.4201 19.5 49.4201C20.2417 49.4201 20.93 49.1951 21.5 48.7967V49.2734ZM47.6233 49.2734H49.3067V42.5017H47.6233V43.0451C47.0366 42.6367 46.3382 42.4191 45.6233 42.4217C43.6867 42.4217 42.1233 43.9851 42.1233 45.9217C42.1218 46.3817 42.2113 46.8375 42.3866 47.2627C42.562 47.688 42.8198 48.0743 43.1451 48.3995C43.4705 48.7246 43.8569 48.9822 44.2822 49.1574C44.7076 49.3326 45.1634 49.4218 45.6233 49.4201C46.365 49.4201 47.0533 49.1951 47.6233 48.7967V49.2734ZM49.93 47.0734C49.9833 48.4401 51.15 49.4067 53.0967 49.4067C54.6883 49.4067 56 48.7167 56 47.1934C56 46.1334 55.4033 45.5101 54.025 45.2434L52.9517 45.0334C52.2617 44.9001 51.785 44.7667 51.785 44.3567C51.785 43.9067 52.2483 43.7067 52.8317 43.7067C53.6817 43.7067 54.025 44.1317 54.0517 44.6351H55.7483C55.655 43.3101 54.595 42.4217 52.885 42.4217C51.1233 42.4217 50.075 43.3884 50.075 44.6484C50.075 46.1851 51.3217 46.4367 52.395 46.6367L53.2833 46.7951C53.92 46.9151 54.1983 47.1001 54.1983 47.4717C54.1983 47.8034 53.88 48.1334 53.1233 48.1334C52.0233 48.1334 51.6667 47.5634 51.6533 47.0734H49.93ZM29.3733 40.1951V43.0451C28.7866 42.6367 28.0882 42.4191 27.3733 42.4217C25.4367 42.4217 23.8733 43.9851 23.8733 45.9217C23.8733 47.8684 25.4367 49.4201 27.3733 49.4201C28.1133 49.4201 28.8033 49.1951 29.3733 48.7967V49.2734H31.0567V40.1951H29.3733ZM39.75 40.1951V43.0451C39.1632 42.6367 38.4649 42.4191 37.75 42.4217C35.815 42.4217 34.25 43.9851 34.25 45.9217C34.2485 46.3817 34.3379 46.8375 34.5133 47.2627C34.6887 47.688 34.9465 48.0743 35.2718 48.3995C35.5971 48.7246 35.9836 48.9822 36.4089 49.1574C36.8342 49.3326 37.29 49.4218 37.75 49.4201C38.4917 49.4201 39.18 49.1951 39.75 48.7967V49.2734H41.4333V40.1951H39.75ZM20.3733 38.1951L21.5133 40.1951H29.3733L26.2583 34.8134L20.375 38.1934L20.3733 38.1951ZM33.5617 41.8784V40.1951H39.75L33.15 28.7701L27.2517 32.1501L31.8783 40.1951V41.8784H33.5617ZM42.2567 40.1951H50.1283L39.95 22.5801L34.065 25.9734L42.2567 40.1951Z" fill="black"/>
</g>
<defs>
<clipPath id="clip0_1_1094">
<rect width="40" height="40" fill="white" transform="translate(16 16)"/>
</clipPath>
</defs>
</svg>
