<svg width="305" height="265" viewBox="0 0 305 265" fill="none" xmlns="http://www.w3.org/2000/svg">
<g clip-path="url(#clip0_8_1263)">
<path d="M157.628 9.58398H0V117.903H157.628V9.58398Z" fill="#9BDAC1"/>
<path d="M91.5663 49.0029H0V53.9275H91.5663V49.0029Z" fill="#CEECE0"/>
<path d="M157.627 72.8086H97.644V77.7332H157.627V72.8086Z" fill="#CEECE0"/>
<path d="M97.6443 9.58398H91.5664V117.903H97.6443V9.58398Z" fill="#CEECE0"/>
<path d="M50.3469 0C44.8252 0 39.5296 2.19167 35.6252 6.0929C31.7208 9.99412 29.5273 15.2853 29.5273 20.8025C29.5273 32.2858 50.3469 52.0504 50.3469 52.0504C50.3469 52.0504 71.1443 32.2858 71.1443 20.8025C71.1472 18.0717 70.6115 15.3671 69.5676 12.8434C68.5237 10.3196 66.9922 8.02623 65.0607 6.09425C63.1292 4.16227 60.8355 2.6296 58.3108 1.5839C55.7861 0.538209 53.0799 -1.54197e-06 50.3469 0ZM50.3469 23.1213C49.0355 23.1213 47.7536 22.7327 46.6632 22.0047C45.5728 21.2768 44.723 20.2421 44.2212 19.0315C43.7193 17.8209 43.588 16.4889 43.8438 15.2038C44.0997 13.9186 44.7312 12.7382 45.6585 11.8117C46.5858 10.8851 47.7672 10.2542 49.0533 9.99852C50.3395 9.7429 51.6727 9.87409 52.8842 10.3755C54.0958 10.877 55.1313 11.7261 55.8599 12.8156C56.5885 13.9051 56.9773 15.186 56.9773 16.4963C56.9773 18.2533 56.2788 19.9384 55.0353 21.1808C53.7919 22.4232 52.1054 23.1213 50.3469 23.1213Z" fill="#0AA066"/>
<path d="M167.683 223.66H65.7295V161.275L100.583 98.8892H167.683V223.66Z" fill="#0AA066" fill-opacity="0.51"/>
<path d="M406.91 56.3345H167.684V223.682H406.91V56.3345Z" fill="#F5F5F5"/>
<path d="M65.7295 161.274H126.42V105.558H96.8483L65.7295 161.274Z" fill="white"/>
<path d="M167.684 207.362H61.9946V227.105H167.684V207.362Z" fill="#0AA066"/>
<path d="M77.9297 189.696H70.7246V204.271H77.9297V189.696Z" fill="#0AA066"/>
<path d="M70.7246 189.696H63.5195V204.271H70.7246V189.696Z" fill="white"/>
<path d="M154.268 105.558H131.923V161.274H154.268V105.558Z" fill="#0AA066"/>
<path d="M305.022 207.362H167.684V227.105H305.022V207.362Z" fill="#0AA066" fill-opacity="0.51"/>
<path d="M181.165 56.3345H167.684V207.362H181.165V56.3345Z" fill="#9BDAC1"/>
<path d="M154.952 237.087C157.81 219.573 145.917 203.06 128.388 200.204C110.859 197.349 94.3328 209.232 91.4749 226.746C88.6171 244.261 100.51 260.774 118.039 263.629C135.568 266.485 152.094 254.602 154.952 237.087Z" fill="#0AA066"/>
<path d="M140.545 237.863C143.808 228.318 138.71 217.937 129.157 214.677C119.604 211.416 109.215 216.511 105.952 226.056C102.689 235.6 107.787 245.981 117.34 249.242C126.893 252.502 137.282 247.408 140.545 237.863Z" fill="#CEECE0"/>
<path d="M123.215 247.576C131.967 247.576 139.062 240.487 139.062 231.742C139.062 222.998 131.967 215.909 123.215 215.909C114.463 215.909 107.369 222.998 107.369 231.742C107.369 240.487 114.463 247.576 123.215 247.576Z" fill="#E3ECFF"/>
<path d="M126.398 159.685H65.7295V161.275H126.398V159.685Z" fill="#0AA066"/>
<path d="M278.81 174.304H198.626V177.55H278.81V174.304Z" fill="white"/>
<path d="M221.258 112.073H141.074V115.319H221.258V112.073Z" fill="white"/>
<path d="M231.579 236.535H151.395V239.781H231.579V236.535Z" fill="#0AA066"/>
<path d="M316.537 186.45H236.353V189.696H316.537V186.45Z" fill="white"/>
</g>
<defs>
<clipPath id="clip0_8_1263">
<rect width="305" height="265" fill="white"/>
</clipPath>
</defs>
</svg>
