<svg width="306" height="240" viewBox="0 0 306 240" fill="none" xmlns="http://www.w3.org/2000/svg">
<path d="M143 240C209.274 240 263 186.274 263 120C263 53.7258 209.274 0 143 0C76.7258 0 23 53.7258 23 120C23 186.274 76.7258 240 143 240Z" fill="url(#paint0_linear_0_106)"/>
<g filter="url(#filter0_d_0_106)">
<rect x="82.0001" y="34.5566" width="124.537" height="155.029" rx="16" fill="url(#paint1_linear_0_106)"/>
</g>
<rect x="93.0001" y="54.5566" width="50" height="9.8" rx="4.9" fill="black"/>
<rect x="93.0001" y="82.3564" width="100" height="9.8" rx="4.9" fill="#D5D5D5"/>
<rect x="93.0001" y="110.157" width="100" height="9.8" rx="4.9" fill="#D5D5D5"/>
<rect x="93.0001" y="137.957" width="100" height="9.8" rx="4.9" fill="#D5D5D5"/>
<rect x="93.0001" y="165.757" width="100" height="9.8" rx="4.9" fill="#D5D5D5"/>
<g filter="url(#filter1_d_0_106)">
<path d="M281.15 17.4238H221.069C218.27 17.4238 216 19.8123 216 22.7587V52.4778C216 55.4242 218.27 57.8127 221.069 57.8127H281.15C283.949 57.8127 286.219 55.4242 286.219 52.4778V22.7587C286.219 19.8123 283.949 17.4238 281.15 17.4238Z" fill="white"/>
</g>
<path d="M231 44C234.314 44 237 41.3137 237 38C237 34.6863 234.314 32 231 32C227.686 32 225 34.6863 225 38C225 41.3137 227.686 44 231 44Z" fill="#CCC6D9"/>
<rect x="245" y="32" width="32" height="12" rx="6" fill="#D5D5D5"/>
<path fill-rule="evenodd" clip-rule="evenodd" d="M178.11 196.563C190.99 196.563 202.959 192.667 212.905 185.99L253.605 224.841L268.365 207.716L229.092 170.226C236.345 160.018 240.61 147.539 240.61 134.063C240.61 99.5457 212.627 71.5635 178.11 71.5635C143.592 71.5635 115.61 99.5457 115.61 134.063C115.61 168.581 143.592 196.563 178.11 196.563ZM231.419 134.064C231.419 163.287 207.729 186.977 178.505 186.977C149.282 186.977 125.592 163.287 125.592 134.064C125.592 104.84 149.282 81.1503 178.505 81.1503C207.729 81.1503 231.419 104.84 231.419 134.064Z" fill="#CCC6D9"/>
<g filter="url(#filter2_b_0_106)">
<path d="M178.5 188C208.6 188 233 163.823 233 134C233 104.177 208.6 80 178.5 80C148.4 80 124 104.177 124 134C124 163.823 148.4 188 178.5 188Z" fill="white" fill-opacity="0.3"/>
</g>
<path d="M187.923 134L201.112 120.862C202.348 119.562 203.025 117.835 202.999 116.047C202.974 114.259 202.248 112.552 200.976 111.287C199.704 110.023 197.986 109.301 196.187 109.276C194.388 109.251 192.65 109.923 191.342 111.151L178.124 124.289L164.935 111.151C164.3 110.484 163.537 109.95 162.691 109.58C161.845 109.211 160.933 109.014 160.009 109.001C159.085 108.988 158.168 109.159 157.312 109.504C156.456 109.85 155.678 110.362 155.024 111.012C154.371 111.661 153.855 112.434 153.508 113.285C153.16 114.136 152.988 115.048 153.001 115.967C153.014 116.885 153.212 117.791 153.584 118.632C153.955 119.473 154.493 120.231 155.165 120.862L168.376 134L155.165 147.138C154.493 147.769 153.955 148.527 153.584 149.368C153.212 150.209 153.014 151.115 153.001 152.033C152.988 152.952 153.16 153.863 153.508 154.715C153.855 155.566 154.371 156.339 155.024 156.988C155.678 157.637 156.456 158.15 157.312 158.496C158.168 158.841 159.085 159.012 160.009 158.999C160.933 158.986 161.845 158.789 162.691 158.42C163.537 158.05 164.3 157.516 164.935 156.849L178.153 143.711L191.372 156.849C192.692 158.004 194.405 158.616 196.164 158.559C197.922 158.503 199.592 157.782 200.834 156.544C202.076 155.305 202.796 153.643 202.848 151.896C202.9 150.148 202.279 148.446 201.112 147.138L187.923 134Z" fill="black"/>
<path d="M253.602 224.843L268.362 207.718L270.585 209.84C272.742 211.899 274.033 214.775 274.175 217.837C274.317 220.898 273.297 223.893 271.341 226.163C269.384 228.433 266.651 229.792 263.742 229.941C260.833 230.091 257.987 229.018 255.83 226.959L253.607 224.836L253.602 224.843Z" fill="#E1DCEB"/>
<path fill-rule="evenodd" clip-rule="evenodd" d="M49.3144 62.1719C49.2956 60.7459 49.1167 59.3076 48.7589 57.8594C47.5042 52.7773 41.9064 49.5146 35.9484 48.7475C29.9927 47.9804 23.7993 49.7261 21.4123 54.1468C20.047 56.6743 19.8587 58.8527 20.4166 60.6893C20.9721 62.5161 22.2903 64.0306 24.0793 65.2108C29.0675 68.4981 37.8034 69.1693 41.7887 67.7949C43.6319 67.1581 45.4327 66.391 47.1864 65.5133C46.1836 71.2592 42.4477 76.7027 37.4619 81.6077C26.6264 92.2685 9.81169 100.36 0.654562 103.335C0.162573 103.495 -0.110516 104.041 0.0424948 104.554C0.195506 105.068 0.718088 105.356 1.21008 105.196C10.5485 102.162 27.6905 93.8987 38.7402 83.0264C44.4487 77.4108 48.5164 71.0895 49.2109 64.4437C62.1156 57.2423 72.7134 44.1769 81.774 33.1817C82.1106 32.776 82.0659 32.1589 81.6751 31.8073C81.2844 31.4582 80.6958 31.5024 80.3592 31.9106C71.6681 42.4558 61.5812 55 49.3144 62.1719ZM47.4383 63.2169C47.509 61.6138 47.3582 59.9861 46.951 58.3437C45.8658 53.9452 40.8776 51.3439 35.72 50.6801C32.5585 50.2744 29.3077 50.6088 26.7583 51.7988C25.1552 52.5462 23.8345 53.6305 23.0389 55.1057C21.9937 57.0407 21.7677 58.6954 22.1961 60.0993C22.6245 61.513 23.6887 62.6489 25.0752 63.561C29.6208 66.5582 37.575 67.195 41.2025 65.9435C43.3423 65.2059 45.4186 64.2864 47.4383 63.2169Z" fill="black"/>
<circle cx="278" cy="155" r="6" fill="#E3E3E3"/>
<path fill-rule="evenodd" clip-rule="evenodd" d="M51.3845 196.395C52.4553 195.993 53.582 195.459 54.451 194.687C55.483 193.769 55.9027 192.587 56.1845 191.343C56.5464 189.745 56.6909 188.042 57.1297 186.441C57.2922 185.847 57.6048 185.622 57.739 185.522C58.0781 185.27 58.4208 185.203 58.7433 185.228C59.1254 185.257 59.6504 185.409 59.9956 186.084C60.0448 186.18 60.1088 186.327 60.1519 186.529C60.1833 186.676 60.2036 187.138 60.2368 187.328C60.3199 187.797 60.3894 188.266 60.4546 188.738C60.6719 190.307 60.7968 191.64 61.483 193.081C62.414 195.038 63.347 196.236 64.6122 196.766C65.8356 197.279 67.2984 197.183 69.1673 196.781C69.3451 196.735 69.5211 196.696 69.6953 196.665C70.5193 196.513 71.307 197.082 71.4688 197.946C71.6307 198.81 71.107 199.651 70.2904 199.841C70.1199 199.88 69.9519 199.918 69.7857 199.952C67.2602 200.61 64.3365 202.958 62.6374 205.015C62.1137 205.649 61.347 207.421 60.5648 208.552C59.9876 209.386 59.339 209.936 58.7943 210.13C58.4294 210.261 58.1217 210.241 57.8676 210.175C57.4984 210.079 57.1919 209.869 56.9568 209.534C56.8288 209.35 56.71 209.105 56.6534 208.792C56.6263 208.641 56.6233 208.257 56.6239 208.084C56.4645 207.507 56.2694 206.943 56.1273 206.361C55.7882 204.972 55.123 204.092 54.3328 202.93C53.5937 201.843 52.7999 201.16 51.6362 200.615C51.4848 200.576 50.2633 200.261 49.8319 200.08C49.2017 199.815 48.9014 199.372 48.7925 199.133C48.6073 198.727 48.5882 198.373 48.6251 198.078C48.6799 197.642 48.8657 197.269 49.1956 196.968C49.3999 196.781 49.7051 196.599 50.1137 196.51C50.4294 196.441 51.2669 196.4 51.3845 196.395ZM58.5506 194.13C58.6073 194.263 58.6676 194.397 58.7316 194.531C60.0953 197.398 61.6202 198.998 63.4737 199.775L63.5359 199.8C62.2959 200.769 61.1734 201.852 60.3156 202.89C59.9623 203.317 59.4947 204.205 58.9894 205.116C58.5303 203.545 57.7796 202.435 56.8356 201.046C56.1143 199.986 55.3587 199.188 54.43 198.538C55.1507 198.148 55.838 197.692 56.4368 197.16C57.4337 196.273 58.0928 195.246 58.5506 194.13Z" fill="#CCC6D9"/>
<defs>
<filter id="filter0_d_0_106" x="52.0001" y="24.5566" width="184.537" height="215.029" filterUnits="userSpaceOnUse" color-interpolation-filters="sRGB">
<feFlood flood-opacity="0" result="BackgroundImageFix"/>
<feColorMatrix in="SourceAlpha" type="matrix" values="0 0 0 0 0 0 0 0 0 0 0 0 0 0 0 0 0 0 127 0" result="hardAlpha"/>
<feOffset dy="20"/>
<feGaussianBlur stdDeviation="15"/>
<feComposite in2="hardAlpha" operator="out"/>
<feColorMatrix type="matrix" values="0 0 0 0 0.570833 0 0 0 0 0.570833 0 0 0 0 0.570833 0 0 0 0.19 0"/>
<feBlend mode="normal" in2="BackgroundImageFix" result="effect1_dropShadow_0_106"/>
<feBlend mode="normal" in="SourceGraphic" in2="effect1_dropShadow_0_106" result="shape"/>
</filter>
<filter id="filter1_d_0_106" x="209" y="8.42383" width="96.219" height="66.3887" filterUnits="userSpaceOnUse" color-interpolation-filters="sRGB">
<feFlood flood-opacity="0" result="BackgroundImageFix"/>
<feColorMatrix in="SourceAlpha" type="matrix" values="0 0 0 0 0 0 0 0 0 0 0 0 0 0 0 0 0 0 127 0" result="hardAlpha"/>
<feOffset dx="6" dy="4"/>
<feGaussianBlur stdDeviation="6.5"/>
<feComposite in2="hardAlpha" operator="out"/>
<feColorMatrix type="matrix" values="0 0 0 0 0.104618 0 0 0 0 0.465612 0 0 0 0 0.545833 0 0 0 0.09 0"/>
<feBlend mode="normal" in2="BackgroundImageFix" result="effect1_dropShadow_0_106"/>
<feBlend mode="normal" in="SourceGraphic" in2="effect1_dropShadow_0_106" result="shape"/>
</filter>
<filter id="filter2_b_0_106" x="116" y="72" width="125" height="124" filterUnits="userSpaceOnUse" color-interpolation-filters="sRGB">
<feFlood flood-opacity="0" result="BackgroundImageFix"/>
<feGaussianBlur in="BackgroundImageFix" stdDeviation="4"/>
<feComposite in2="SourceAlpha" operator="in" result="effect1_backgroundBlur_0_106"/>
<feBlend mode="normal" in="SourceGraphic" in2="effect1_backgroundBlur_0_106" result="shape"/>
</filter>
<linearGradient id="paint0_linear_0_106" x1="142.075" y1="-39.0749" x2="144.533" y2="382.347" gradientUnits="userSpaceOnUse">
<stop stop-color="#F2F2F2"/>
<stop offset="1" stop-color="#EFEFEF"/>
</linearGradient>
<linearGradient id="paint1_linear_0_106" x1="144.269" y1="34.5566" x2="144.269" y2="189.585" gradientUnits="userSpaceOnUse">
<stop stop-color="white"/>
<stop offset="0.71875" stop-color="#FAFAFA"/>
</linearGradient>
</defs>
</svg>
