<svg width="24" height="24" viewBox="0 0 24 24" fill="none" xmlns="http://www.w3.org/2000/svg">
<path fill-rule="evenodd" clip-rule="evenodd" d="M1.5 2C1.5 1.72386 1.72386 1.5 2 1.5H2.88918C4.12529 1.5 5.17584 2.40338 5.36098 3.62555L5.49345 4.5H19.56C21.1378 4.5 22.3211 5.94357 22.0114 7.49066L21.0106 12.4907C20.7768 13.659 19.7508 14.5 18.5592 14.5H7.1412L7.47902 16.2797C7.6134 16.9876 8.23215 17.5 8.95271 17.5H18C18.2761 17.5 18.5 17.7239 18.5 18C18.5 18.2761 18.2761 18.5 18 18.5H8.95271C7.75178 18.5 6.72052 17.6461 6.49657 16.4662L6.04614 14.0932L6.04378 14.0808L6.04394 14.0808L4.57007 5.08081L4.5691 5.0749L4.56913 5.07489L4.37226 3.77533C4.26117 3.04203 3.63085 2.5 2.88918 2.5H2C1.72386 2.5 1.5 2.27614 1.5 2ZM6.96214 13.5L5.65203 5.5H19.56C20.5067 5.5 21.2166 6.36614 21.0308 7.29439L20.0301 12.2944C19.8898 12.9954 19.2742 13.5 18.5592 13.5H6.96214ZM10 21C10 21.5523 9.55229 22 9 22C8.44772 22 8 21.5523 8 21C8 20.4477 8.44772 20 9 20C9.55229 20 10 20.4477 10 21ZM17 22C17.5523 22 18 21.5523 18 21C18 20.4477 17.5523 20 17 20C16.4477 20 16 20.4477 16 21C16 21.5523 16.4477 22 17 22Z" fill="#919191"/>
</svg>
