<svg width="48" height="48" viewBox="0 0 48 48" fill="none" xmlns="http://www.w3.org/2000/svg">
<path d="M32.25 14.25C32.4489 14.25 32.6397 14.171 32.7803 14.0303C32.921 13.8897 33 13.6989 33 13.5V10.5C33 10.3011 32.921 10.1103 32.7803 9.96967C32.6397 9.82902 32.4489 9.75 32.25 9.75C32.0511 9.75 31.8603 9.82902 31.7197 9.96967C31.579 10.1103 31.5 10.3011 31.5 10.5V13.5C31.5 13.6989 31.579 13.8897 31.7197 14.0303C31.8603 14.171 32.0511 14.25 32.25 14.25ZM32.25 21.75C32.0511 21.75 31.8603 21.829 31.7197 21.9697C31.579 22.1103 31.5 22.3011 31.5 22.5V25.5C31.5 25.6989 31.579 25.8897 31.7197 26.0303C31.8603 26.171 32.0511 26.25 32.25 26.25C32.4489 26.25 32.6397 26.171 32.7803 26.0303C32.921 25.8897 33 25.6989 33 25.5V22.5C33 22.3011 32.921 22.1103 32.7803 21.9697C32.6397 21.829 32.4489 21.75 32.25 21.75ZM15.75 38.25C16.9367 38.25 18.0967 37.8981 19.0834 37.2388C20.0701 36.5795 20.8392 35.6425 21.2933 34.5461C21.7474 33.4497 21.8662 32.2433 21.6347 31.0795C21.4032 29.9156 20.8318 28.8465 19.9926 28.0074C19.1535 27.1682 18.0844 26.5968 16.9205 26.3653C15.7567 26.1338 14.5503 26.2526 13.4539 26.7067C12.3575 27.1608 11.4205 27.9299 10.7612 28.9166C10.1019 29.9033 9.75 31.0633 9.75 32.25C9.75 33.8413 10.3821 35.3674 11.5074 36.4926C12.6326 37.6179 14.1587 38.25 15.75 38.25ZM15.75 27.75C16.5016 27.746 17.2423 27.9303 17.9044 28.2861C18.5665 28.642 19.1289 29.158 19.5402 29.7871C19.9516 30.4161 20.1989 31.1382 20.2594 31.8874C20.32 32.6366 20.1919 33.3891 19.8869 34.076C19.5819 34.763 19.1096 35.3626 18.5133 35.8202C17.9169 36.2777 17.2155 36.5786 16.473 36.6953C15.7304 36.8121 14.9705 36.741 14.2625 36.4885C13.5546 36.236 12.9211 35.8102 12.42 35.25H12.4875C12.9875 35.139 13.4347 34.8608 13.7552 34.4612C14.0757 34.0616 14.2502 33.5647 14.25 33.0525V31.4475C14.2502 30.9353 14.0757 30.4384 13.7552 30.0388C13.4347 29.6392 12.9875 29.361 12.4875 29.25H12.4125C12.8327 28.7802 13.347 28.4039 13.9219 28.1455C14.4968 27.8871 15.1197 27.7523 15.75 27.75ZM11.25 32.25C11.2526 31.6797 11.362 31.115 11.5725 30.585L12.165 30.72C12.3342 30.7581 12.4849 30.8537 12.5916 30.9904C12.6983 31.1271 12.7542 31.2966 12.75 31.47V33.075C12.7542 33.2484 12.6983 33.4179 12.5916 33.5546C12.4849 33.6913 12.3342 33.7869 12.165 33.825L11.5725 33.96C11.3564 33.4159 11.2469 32.8354 11.25 32.25ZM22.5 20.25H24C24.1989 20.25 24.3897 20.171 24.5303 20.0303C24.671 19.8897 24.75 19.6989 24.75 19.5C24.75 19.3011 24.671 19.1103 24.5303 18.9697C24.3897 18.829 24.1989 18.75 24 18.75H22.5C22.3011 18.75 22.1103 18.829 21.9697 18.9697C21.829 19.1103 21.75 19.3011 21.75 19.5C21.75 19.6989 21.829 19.8897 21.9697 20.0303C22.1103 20.171 22.3011 20.25 22.5 20.25ZM7.5 20.25H9C9.19891 20.25 9.38968 20.171 9.53033 20.0303C9.67098 19.8897 9.75 19.6989 9.75 19.5C9.75 19.3011 9.67098 19.1103 9.53033 18.9697C9.38968 18.829 9.19891 18.75 9 18.75H7.5C7.30109 18.75 7.11032 18.829 6.96967 18.9697C6.82902 19.1103 6.75 19.3011 6.75 19.5C6.75 19.6989 6.82902 19.8897 6.96967 20.0303C7.11032 20.171 7.30109 20.25 7.5 20.25ZM12 20.25H19.5C19.6989 20.25 19.8897 20.171 20.0303 20.0303C20.171 19.8897 20.25 19.6989 20.25 19.5C20.25 19.3011 20.171 19.1103 20.0303 18.9697C19.8897 18.829 19.6989 18.75 19.5 18.75H12C11.8011 18.75 11.6103 18.829 11.4697 18.9697C11.329 19.1103 11.25 19.3011 11.25 19.5C11.25 19.6989 11.329 19.8897 11.4697 20.0303C11.6103 20.171 11.8011 20.25 12 20.25Z" fill="black"/>
<path d="M42 27.75H36V6C36 5.40326 35.7629 4.83097 35.341 4.40901C34.919 3.98705 34.3467 3.75 33.75 3.75H14.25C13.6533 3.75 13.081 3.98705 12.659 4.40901C12.2371 4.83097 12 5.40326 12 6V15.75H6C5.40326 15.75 4.83097 15.9871 4.40901 16.409C3.98705 16.831 3.75 17.4033 3.75 18V42C3.75 42.5967 3.98705 43.169 4.40901 43.591C4.83097 44.0129 5.40326 44.25 6 44.25H42C42.5967 44.25 43.169 44.0129 43.591 43.591C44.0129 43.169 44.25 42.5967 44.25 42V30C44.25 29.4033 44.0129 28.831 43.591 28.409C43.169 27.9871 42.5967 27.75 42 27.75ZM27.75 27.75V20.25H34.5V27.75H27.75ZM13.5 6C13.5 5.80109 13.579 5.61032 13.7197 5.46967C13.8603 5.32902 14.0511 5.25 14.25 5.25H20.535L19.785 6.75H13.5V6ZM13.5 8.25H20.25C20.3885 8.24958 20.5242 8.21082 20.642 8.13801C20.7598 8.0652 20.8552 7.96119 20.9175 7.8375L22.215 5.25H33.75C33.9489 5.25 34.1397 5.32902 34.2803 5.46967C34.421 5.61032 34.5 5.80109 34.5 6V18.75H27.75V18C27.75 17.4033 27.5129 16.831 27.091 16.409C26.669 15.9871 26.0967 15.75 25.5 15.75H13.5V8.25ZM6 17.25H25.5C25.6989 17.25 25.8897 17.329 26.0303 17.4697C26.171 17.6103 26.25 17.8011 26.25 18V21.75H5.25V18C5.25 17.8011 5.32902 17.6103 5.46967 17.4697C5.61032 17.329 5.80109 17.25 6 17.25ZM5.25 42V23.25H26.25V27.75H25.5C24.9033 27.75 24.331 27.9871 23.909 28.409C23.4871 28.831 23.25 29.4033 23.25 30V39.75H7.5C7.30109 39.75 7.11032 39.829 6.96967 39.9697C6.82902 40.1103 6.75 40.3011 6.75 40.5C6.75 40.6989 6.82902 40.8897 6.96967 41.0303C7.11032 41.171 7.30109 41.25 7.5 41.25H23.25V42C23.252 42.2559 23.2977 42.5095 23.385 42.75H6C5.80109 42.75 5.61032 42.671 5.46967 42.5303C5.32902 42.3897 5.25 42.1989 5.25 42ZM42.75 42C42.75 42.1989 42.671 42.3897 42.5303 42.5303C42.3897 42.671 42.1989 42.75 42 42.75H25.5C25.3011 42.75 25.1103 42.671 24.9697 42.5303C24.829 42.3897 24.75 42.1989 24.75 42V30C24.75 29.8011 24.829 29.6103 24.9697 29.4697C25.1103 29.329 25.3011 29.25 25.5 29.25H42C42.1989 29.25 42.3897 29.329 42.5303 29.4697C42.671 29.6103 42.75 29.8011 42.75 30V42Z" fill="black"/>
<path d="M36 30.75H27C26.8011 30.75 26.6103 30.829 26.4697 30.9697C26.329 31.1103 26.25 31.3011 26.25 31.5V40.5C26.25 40.6989 26.329 40.8897 26.4697 41.0303C26.6103 41.171 26.8011 41.25 27 41.25H36C36.1989 41.25 36.3897 41.171 36.5303 41.0303C36.671 40.8897 36.75 40.6989 36.75 40.5V31.5C36.75 31.3011 36.671 31.1103 36.5303 30.9697C36.3897 30.829 36.1989 30.75 36 30.75ZM35.25 39.75H27.75V32.25H35.25V39.75ZM40.5 35.25H39C38.8011 35.25 38.6103 35.329 38.4697 35.4697C38.329 35.6103 38.25 35.8011 38.25 36C38.25 36.1989 38.329 36.3897 38.4697 36.5303C38.6103 36.671 38.8011 36.75 39 36.75H40.5C40.6989 36.75 40.8897 36.671 41.0303 36.5303C41.171 36.3897 41.25 36.1989 41.25 36C41.25 35.8011 41.171 35.6103 41.0303 35.4697C40.8897 35.329 40.6989 35.25 40.5 35.25ZM40.5 32.25H39C38.8011 32.25 38.6103 32.329 38.4697 32.4697C38.329 32.6103 38.25 32.8011 38.25 33C38.25 33.1989 38.329 33.3897 38.4697 33.5303C38.6103 33.671 38.8011 33.75 39 33.75H40.5C40.6989 33.75 40.8897 33.671 41.0303 33.5303C41.171 33.3897 41.25 33.1989 41.25 33C41.25 32.8011 41.171 32.6103 41.0303 32.4697C40.8897 32.329 40.6989 32.25 40.5 32.25ZM40.5 38.25H39C38.8011 38.25 38.6103 38.329 38.4697 38.4697C38.329 38.6103 38.25 38.8011 38.25 39C38.25 39.1989 38.329 39.3897 38.4697 39.5303C38.6103 39.671 38.8011 39.75 39 39.75H40.5C40.6989 39.75 40.8897 39.671 41.0303 39.5303C41.171 39.3897 41.25 39.1989 41.25 39C41.25 38.8011 41.171 38.6103 41.0303 38.4697C40.8897 38.329 40.6989 38.25 40.5 38.25Z" fill="black"/>
</svg>
