<svg width="72" height="72" viewBox="0 0 72 72" fill="none" xmlns="http://www.w3.org/2000/svg">
<rect x="0.4" y="0.4" width="71.2" height="71.2" rx="9.6" stroke="#E8E8E8" stroke-width="0.8"/>
<g clip-path="url(#clip0_1_1103)">
<path d="M30.25 32.48C31.785 32.48 33.0133 32.8633 33.9517 33.7166C34.5933 34.2983 34.9517 35.1266 34.9417 35.995C34.9393 36.4234 34.8504 36.847 34.6803 37.2402C34.5102 37.6335 34.2623 37.9883 33.9517 38.2833C33.0733 39.09 31.705 39.52 30.2517 39.52C28.7967 39.52 27.4517 39.09 26.56 38.2833C26.2385 37.996 25.9824 37.643 25.8091 37.2483C25.6357 36.8535 25.5491 36.4261 25.555 35.995C25.555 35.1316 25.9183 34.3033 26.56 33.7166C27.3933 32.96 28.8667 32.48 30.25 32.48ZM30.255 38.5966C31.0233 38.5966 31.735 38.3283 32.235 37.8333C32.735 37.3333 32.9567 36.7333 32.9567 35.995C32.9567 35.2883 32.71 34.6266 32.235 34.1566C31.745 33.6733 31.0133 33.3983 30.255 33.3983C29.4967 33.3983 28.7667 33.6716 28.2717 34.1566C27.7967 34.6266 27.5483 35.2883 27.5483 35.995C27.5382 36.6791 27.7981 37.3396 28.2717 37.8333C28.7667 38.3233 29.4933 38.5966 30.255 38.5966ZM22.1867 35.3166C22.4533 35.3866 22.7117 35.4733 22.9633 35.5883C23.1968 35.6946 23.4105 35.8401 23.595 36.0183C23.9233 36.3616 24.11 36.8216 24.105 37.295C24.1086 37.546 24.0533 37.7943 23.9436 38.02C23.8339 38.2458 23.6729 38.4427 23.4733 38.595C23.1204 38.8625 22.7192 39.0594 22.2917 39.175C21.6481 39.377 20.976 39.4727 20.3017 39.4583C19.715 39.4583 19.3917 39.39 18.9467 39.2966L18.8183 39.27C18.328 39.1615 17.8491 39.0064 17.3883 38.8066C17.3677 38.7927 17.3432 38.7857 17.3183 38.7866C17.2818 38.7875 17.247 38.8027 17.2215 38.8288C17.196 38.855 17.1817 38.8901 17.1817 38.9266V39.265H16.2017V36.8016H17.075C17.0804 37.0514 17.1599 37.2939 17.3033 37.4983C17.6567 37.9316 18.0367 38.0983 18.3983 38.2316C19.01 38.4316 19.6517 38.5383 20.2917 38.5583C21.2133 38.5583 21.7517 38.335 21.8683 38.2866L21.8833 38.28L21.8933 38.2766C21.9967 38.2383 22.4133 38.0866 22.4133 37.6233C22.4133 37.1666 22.0233 37.0666 21.7683 37.0016L21.7317 36.9933C21.4483 36.9166 20.795 36.8466 20.0817 36.7716L19.8283 36.745C19.1594 36.6769 18.4938 36.5795 17.8333 36.4533C17.0033 36.27 16.6767 35.9666 16.4733 35.7783L16.46 35.765C16.1636 35.4489 15.9991 35.0316 16 34.5983C16 33.7716 16.5667 33.2716 17.2617 32.965C18.005 32.6316 18.8883 32.4833 19.6617 32.4833C21.0283 32.4883 22.14 32.9333 22.54 33.14C22.7017 33.2266 22.7817 33.12 22.7817 33.04V32.7916H23.66V34.9383H22.8733C22.8027 34.6198 22.6308 34.3327 22.3833 34.12C22.2325 33.9987 22.066 33.8983 21.8883 33.8216C21.2289 33.5432 20.5191 33.4042 19.8033 33.4133C19.065 33.4133 18.3583 33.555 18.0033 33.7716C17.7833 33.9083 17.67 34.08 17.67 34.2816C17.67 34.57 17.9133 34.685 18.0367 34.72C18.3633 34.82 19.09 34.8916 19.655 34.9483L19.995 34.9833C20.54 35.0383 21.6817 35.19 22.1867 35.3166ZM52.465 33.655V32.8566H56V33.64H55.2067C54.92 33.64 54.8033 33.695 54.5867 33.9383L52.2083 36.655C52.1833 36.6884 52.1719 36.7301 52.1767 36.7716V38.0083C52.1806 38.0658 52.1873 38.1231 52.1967 38.18C52.2109 38.2162 52.2333 38.2487 52.2622 38.2747C52.2912 38.3008 52.3258 38.3197 52.3633 38.33C52.4351 38.3406 52.5075 38.3461 52.58 38.3466H53.39V39.13H49.1V38.3466H49.8667C49.9392 38.3461 50.0116 38.3406 50.0833 38.33C50.1214 38.3191 50.1567 38.3001 50.1866 38.2742C50.2165 38.2482 50.2405 38.2161 50.2567 38.18C50.2666 38.125 50.2716 38.0692 50.2717 38.0133V36.7766C50.2717 36.735 50.2717 36.735 50.2167 36.67C49.4338 35.778 48.6493 34.8875 47.8633 33.9983C47.7367 33.8666 47.52 33.655 47.1867 33.655H46.4233V32.8716H50.7367V33.655H50.2167C50.1 33.655 50.02 33.7716 50.12 33.8983L51.585 35.65C51.6 35.67 51.61 35.67 51.63 35.655C51.65 35.64 53.12 33.9133 53.13 33.8983C53.1421 33.8824 53.151 33.8642 53.156 33.8448C53.1611 33.8254 53.1623 33.8052 53.1595 33.7854C53.1567 33.7656 53.15 33.7465 53.1398 33.7292C53.1296 33.712 53.1161 33.697 53.1 33.685C53.0703 33.6655 53.0355 33.6551 53 33.655H52.465ZM41.9917 33.65H42.8C43.1683 33.65 43.2333 33.7916 43.2383 34.135L43.285 36.745L38.9817 32.8716H35.9067V33.655H36.5933C37.0883 33.655 37.1233 33.9283 37.1233 34.1716V37.86C37.1233 38.0733 37.125 38.3516 36.82 38.3516H35.9767V39.13H39.5833V38.3466H38.7033C38.35 38.3466 38.3367 38.185 38.33 37.8416V34.705L43.285 39.1233H44.5467L44.48 34.13C44.4867 33.7666 44.5117 33.645 44.885 33.645H45.6733V32.8616H41.9917V33.65Z" fill="black"/>
</g>
<defs>
<clipPath id="clip0_1_1103">
<rect width="40" height="40" fill="white" transform="translate(16 16)"/>
</clipPath>
</defs>
</svg>
