<svg width="20" height="22" viewBox="0 0 20 22" fill="none" xmlns="http://www.w3.org/2000/svg">
<path fill-rule="evenodd" clip-rule="evenodd" d="M1.53488 9.46512C1.53488 5.3124 5.25566 1.53488 9.97674 1.53488C14.6978 1.53488 18.4186 5.3124 18.4186 9.46512C18.4186 12.4808 16.5506 15.2347 14.4306 17.2922C13.3828 18.3092 12.3045 19.125 11.4335 19.6828C10.9975 19.962 10.6225 20.1707 10.3369 20.3064C10.1935 20.3745 10.0825 20.4195 10.004 20.4459C9.9938 20.4494 9.98472 20.4523 9.97674 20.4548C9.96875 20.4523 9.95969 20.4494 9.94948 20.4459C9.87101 20.4195 9.75998 20.3745 9.6166 20.3064C9.33102 20.1707 8.95596 19.962 8.51995 19.6828C7.64895 19.125 6.57071 18.3092 5.52287 17.2922C3.40293 15.2347 1.53488 12.4808 1.53488 9.46512ZM9.97674 0C4.46527 0 0 4.40853 0 9.46512C0 13.1006 2.22498 16.2303 4.45387 18.3936C5.58045 19.4871 6.74058 20.366 7.69226 20.9754C8.16759 21.2797 8.59994 21.5226 8.95789 21.6927C9.13628 21.7775 9.30604 21.8489 9.4599 21.9006C9.59631 21.9466 9.78452 21.9998 9.97674 21.9998C10.169 21.9998 10.3572 21.9466 10.4936 21.9006C10.6474 21.8489 10.8172 21.7775 10.9956 21.6927C11.3535 21.5226 11.7859 21.2797 12.2612 20.9754C13.2129 20.366 14.373 19.4871 15.4996 18.3936C17.7285 16.2303 19.9535 13.1006 19.9535 9.46512C19.9535 4.40853 15.4882 0 9.97674 0ZM7.16279 9.97674C7.16279 8.42264 8.42264 7.16279 9.97674 7.16279C11.5308 7.16279 12.7907 8.42264 12.7907 9.97674C12.7907 11.5308 11.5308 12.7907 9.97674 12.7907C8.42264 12.7907 7.16279 11.5308 7.16279 9.97674ZM9.97674 5.62791C7.57495 5.62791 5.62791 7.57495 5.62791 9.97674C5.62791 12.3785 7.57495 14.3256 9.97674 14.3256C12.3785 14.3256 14.3256 12.3785 14.3256 9.97674C14.3256 7.57495 12.3785 5.62791 9.97674 5.62791Z" fill="black"/>
</svg>
