<svg width="172" height="172" viewBox="0 0 172 172" fill="none" xmlns="http://www.w3.org/2000/svg">
<rect x="0.4" y="0.4" width="79.2" height="79.2" rx="9.6" stroke="#E8E8E8" stroke-width="0.8"/>
<g clip-path="url(#clip0_1_1793)">
<path d="M34.25 36.48C35.785 36.48 37.0133 36.8633 37.9517 37.7166C38.5933 38.2983 38.9517 39.1266 38.9417 39.995C38.9393 40.4234 38.8504 40.847 38.6803 41.2402C38.5102 41.6335 38.2623 41.9883 37.9517 42.2833C37.0733 43.09 35.705 43.52 34.2517 43.52C32.7967 43.52 31.4517 43.09 30.56 42.2833C30.2385 41.996 29.9824 41.643 29.8091 41.2483C29.6357 40.8535 29.5491 40.4261 29.555 39.995C29.555 39.1316 29.9183 38.3033 30.56 37.7166C31.3933 36.96 32.8667 36.48 34.25 36.48ZM34.255 42.5966C35.0233 42.5966 35.735 42.3283 36.235 41.8333C36.735 41.3333 36.9567 40.7333 36.9567 39.995C36.9567 39.2883 36.71 38.6266 36.235 38.1566C35.745 37.6733 35.0133 37.3983 34.255 37.3983C33.4967 37.3983 32.7667 37.6716 32.2717 38.1566C31.7967 38.6266 31.5483 39.2883 31.5483 39.995C31.5382 40.6791 31.7981 41.3396 32.2717 41.8333C32.7667 42.3233 33.4933 42.5966 34.255 42.5966ZM26.1867 39.3166C26.4533 39.3866 26.7117 39.4733 26.9633 39.5883C27.1968 39.6946 27.4105 39.8401 27.595 40.0183C27.9233 40.3616 28.11 40.8216 28.105 41.295C28.1086 41.546 28.0533 41.7943 27.9436 42.02C27.8339 42.2458 27.6728 42.4427 27.4733 42.595C27.1204 42.8625 26.7192 43.0594 26.2917 43.175C25.6481 43.377 24.976 43.4727 24.3017 43.4583C23.715 43.4583 23.3917 43.39 22.9467 43.2966L22.8183 43.27C22.328 43.1615 21.8491 43.0064 21.3883 42.8066C21.3677 42.7927 21.3432 42.7857 21.3183 42.7866C21.2818 42.7875 21.247 42.8027 21.2215 42.8288C21.1959 42.855 21.1817 42.8901 21.1817 42.9266V43.265H20.2017V40.8016H21.075C21.0804 41.0514 21.1599 41.2939 21.3033 41.4983C21.6567 41.9316 22.0367 42.0983 22.3983 42.2316C23.01 42.4316 23.6517 42.5383 24.2917 42.5583C25.2133 42.5583 25.7517 42.335 25.8683 42.2866L25.8833 42.28L25.8933 42.2766C25.9967 42.2383 26.4133 42.0866 26.4133 41.6233C26.4133 41.1666 26.0233 41.0666 25.7683 41.0016L25.7317 40.9933C25.4483 40.9166 24.795 40.8466 24.0817 40.7716L23.8283 40.745C23.1594 40.6769 22.4938 40.5795 21.8333 40.4533C21.0033 40.27 20.6767 39.9666 20.4733 39.7783L20.46 39.765C20.1636 39.4489 19.999 39.0316 20 38.5983C20 37.7716 20.5667 37.2716 21.2617 36.965C22.005 36.6316 22.8883 36.4833 23.6617 36.4833C25.0283 36.4883 26.14 36.9333 26.54 37.14C26.7017 37.2266 26.7817 37.12 26.7817 37.04V36.7916H27.66V38.9383H26.8733C26.8027 38.6198 26.6308 38.3327 26.3833 38.12C26.2325 37.9987 26.066 37.8983 25.8883 37.8216C25.2289 37.5432 24.5191 37.4042 23.8033 37.4133C23.065 37.4133 22.3583 37.555 22.0033 37.7716C21.7833 37.9083 21.67 38.08 21.67 38.2816C21.67 38.57 21.9133 38.685 22.0367 38.72C22.3633 38.82 23.09 38.8916 23.655 38.9483L23.995 38.9833C24.54 39.0383 25.6817 39.19 26.1867 39.3166ZM56.465 37.655V36.8566H60V37.64H59.2067C58.92 37.64 58.8033 37.695 58.5867 37.9383L56.2083 40.655C56.1832 40.6884 56.1719 40.7301 56.1767 40.7716V42.0083C56.1806 42.0658 56.1873 42.1231 56.1967 42.18C56.2109 42.2162 56.2333 42.2487 56.2622 42.2747C56.2912 42.3008 56.3258 42.3197 56.3633 42.33C56.4351 42.3406 56.5075 42.3461 56.58 42.3466H57.39V43.13H53.1V42.3466H53.8667C53.9392 42.3461 54.0116 42.3406 54.0833 42.33C54.1214 42.3191 54.1567 42.3001 54.1866 42.2742C54.2165 42.2482 54.2405 42.2161 54.2567 42.18C54.2666 42.125 54.2716 42.0692 54.2717 42.0133V40.7766C54.2717 40.735 54.2717 40.735 54.2167 40.67C53.4338 39.778 52.6493 38.8875 51.8633 37.9983C51.7367 37.8666 51.52 37.655 51.1867 37.655H50.4233V36.8716H54.7367V37.655H54.2167C54.1 37.655 54.02 37.7716 54.12 37.8983L55.585 39.65C55.6 39.67 55.61 39.67 55.63 39.655C55.65 39.64 57.12 37.9133 57.13 37.8983C57.1421 37.8824 57.151 37.8642 57.156 37.8448C57.1611 37.8254 57.1623 37.8052 57.1595 37.7854C57.1567 37.7656 57.15 37.7465 57.1398 37.7292C57.1296 37.712 57.1161 37.697 57.1 37.685C57.0703 37.6655 57.0355 37.6551 57 37.655H56.465ZM45.9917 37.65H46.8C47.1683 37.65 47.2333 37.7916 47.2383 38.135L47.285 40.745L42.9817 36.8716H39.9067V37.655H40.5933C41.0883 37.655 41.1233 37.9283 41.1233 38.1716V41.86C41.1233 42.0733 41.125 42.3516 40.82 42.3516H39.9767V43.13H43.5833V42.3466H42.7033C42.35 42.3466 42.3367 42.185 42.33 41.8416V38.705L47.285 43.1233H48.5467L48.48 38.13C48.4867 37.7666 48.5117 37.645 48.885 37.645H49.6733V36.8616H45.9917V37.65Z" fill="black"/>
</g>
<rect x="92.4" y="0.4" width="79.2" height="79.2" rx="9.6" stroke="#E8E8E8" stroke-width="0.8"/>
<g clip-path="url(#clip1_1_1793)">
<path d="M151.742 25.0132C151.047 24.1249 149.832 24.8366 149.297 25.1466C145.49 27.3899 144.928 31.3399 143.602 33.6082C142.558 35.4249 140.848 36.7582 139.302 36.8616C138.158 36.9432 136.918 36.7216 135.688 36.1866C132.677 34.8849 131.055 33.1999 130.66 32.9032C129.848 32.2866 123.61 26.2116 118.527 25.9632C118.527 25.9632 117.907 24.7132 117.752 24.6916C117.382 24.6499 117.002 25.4432 116.725 25.5266C116.475 25.6149 116.037 24.6732 115.783 24.7149C115.528 24.7482 115.28 25.6916 114.783 26.1766C114.417 26.5316 113.973 26.5099 113.722 26.9482C113.635 27.1082 113.665 27.3899 113.567 27.6482C113.355 28.1816 112.648 28.2382 112.642 28.8099C112.642 29.4449 113.237 29.5666 113.757 30.0099C114.17 30.3632 114.198 30.6132 114.68 30.7782C115.11 30.9249 115.733 30.4666 116.287 30.6316C116.748 30.7666 117.192 30.8649 117.29 31.3366C117.38 31.7632 117.29 32.4332 116.723 32.3582C116.537 32.3332 115.727 32.0682 114.727 32.1749C113.518 32.3032 112.138 32.6899 112.003 34.0249C111.935 34.7699 112.86 35.6416 113.762 35.4682C114.38 35.3499 114.088 34.6249 114.427 34.2749C114.872 33.8249 117.38 35.8482 119.713 35.8482C120.702 35.8482 121.432 35.5982 122.158 34.8399C122.225 34.7916 122.313 34.6699 122.417 34.6566C122.533 34.6866 122.642 34.7362 122.742 34.8032C124.627 36.2982 126.048 39.3032 132.958 39.3382C133.928 39.3499 135.042 39.8032 135.952 40.6332C136.752 41.3549 137.225 42.5082 137.68 43.6749C138.377 45.4299 139.615 47.1232 141.5 49.0132C141.6 49.1266 143.15 50.3132 143.267 50.4016C143.287 50.4182 143.407 50.6799 143.355 50.8266C143.322 51.9766 143.15 55.2766 145.63 55.4149C146.24 55.4482 146.088 55.0299 146.088 54.7316C146.08 54.1632 145.98 53.5899 146.277 52.9982C146.698 52.2016 145.4 51.8166 145.428 50.0716C145.46 48.7649 144.353 48.9866 143.788 47.9882C143.472 47.4166 143.175 47.1016 143.205 46.4116C143.327 42.4449 142.343 39.8316 141.863 39.1999C141.485 38.7099 141.158 38.5282 141.518 38.2999C143.585 36.9416 144.06 35.6766 144.06 35.6766C145.16 33.1082 146.153 30.7682 147.518 29.7266C147.795 29.5266 148.5 28.9932 148.938 28.7932C150.21 28.1899 150.893 27.8299 151.252 27.4799C151.845 26.9182 152.31 25.7249 151.742 25.0132Z" fill="black"/>
</g>
<rect x="0.4" y="92.4" width="79.2" height="79.2" rx="9.6" stroke="#E8E8E8" stroke-width="0.8"/>
<path d="M60 125L30.7367 137.46C28.31 138.487 26.2717 139.002 24.6233 139.002C22.7567 139.002 21.4017 138.348 20.5617 137.04C20.0333 136.2 19.8783 135.135 20.095 133.843C20.3117 132.552 20.8883 131.177 21.8217 129.713C22.6 128.53 23.875 126.975 25.65 125.047C25.0479 125.994 24.6065 127.035 24.3433 128.127C23.8767 130.118 24.2967 131.58 25.6033 132.513C26.225 132.948 27.08 133.167 28.17 133.167C29.04 133.167 30.02 133.027 31.11 132.747L60 125Z" fill="black"/>
<rect x="92.4" y="92.4" width="79.2" height="79.2" rx="9.6" stroke="#E8E8E8" stroke-width="0.8"/>
<g clip-path="url(#clip2_1_1793)">
<path d="M131.893 141.92C131.893 140.847 132.755 139.987 133.83 139.987C134.903 139.987 135.763 140.847 135.763 141.92C135.764 142.174 135.715 142.426 135.618 142.661C135.521 142.896 135.379 143.11 135.199 143.29C135.019 143.47 134.806 143.612 134.571 143.709C134.336 143.806 134.084 143.856 133.83 143.855C133.576 143.856 133.324 143.807 133.088 143.71C132.853 143.613 132.639 143.471 132.459 143.291C132.279 143.112 132.137 142.898 132.039 142.663C131.942 142.428 131.893 142.174 131.893 141.92ZM139.767 141.922C139.767 140.847 140.628 139.985 141.702 139.985C142.775 139.985 143.637 140.847 143.637 141.92C143.637 142.993 142.775 143.855 141.703 143.855C141.449 143.856 141.197 143.807 140.962 143.71C140.726 143.613 140.513 143.471 140.333 143.291C140.153 143.112 140.01 142.898 139.913 142.663C139.816 142.428 139.766 142.176 139.767 141.922ZM121.517 141.922C121.517 140.847 122.378 139.985 123.452 139.985C124.525 139.985 125.385 140.847 125.385 141.92C125.385 142.993 124.525 143.855 123.452 143.855C123.197 143.856 122.946 143.807 122.711 143.71C122.475 143.613 122.262 143.471 122.082 143.291C121.902 143.111 121.76 142.898 121.663 142.663C121.566 142.428 121.516 142.176 121.517 141.922ZM113.643 141.922C113.643 140.847 114.505 139.985 115.578 139.985C116.652 139.985 117.513 140.847 117.513 141.92C117.514 142.174 117.465 142.426 117.368 142.662C117.271 142.897 117.128 143.11 116.949 143.29C116.769 143.47 116.555 143.613 116.32 143.71C116.085 143.807 115.833 143.856 115.578 143.855C115.324 143.856 115.073 143.806 114.838 143.709C114.603 143.612 114.389 143.47 114.21 143.29C114.03 143.111 113.888 142.897 113.791 142.662C113.694 142.428 113.643 142.176 113.643 141.922ZM129.562 138.502H127.878V145.273H129.562V138.502ZM117.5 145.273H119.183V138.502H117.5V139.045C116.913 138.637 116.215 138.419 115.5 138.422C113.563 138.422 112 139.985 112 141.922C112 143.868 113.563 145.42 115.5 145.42C116.242 145.42 116.93 145.195 117.5 144.797V145.273ZM143.623 145.273H145.307V138.502H143.623V139.045C143.037 138.637 142.338 138.419 141.623 138.422C139.687 138.422 138.123 139.985 138.123 141.922C138.122 142.382 138.211 142.837 138.387 143.263C138.562 143.688 138.82 144.074 139.145 144.399C139.47 144.725 139.857 144.982 140.282 145.157C140.708 145.333 141.163 145.422 141.623 145.42C142.365 145.42 143.053 145.195 143.623 144.797V145.273ZM145.93 143.073C145.983 144.44 147.15 145.407 149.097 145.407C150.688 145.407 152 144.717 152 143.193C152 142.133 151.403 141.51 150.025 141.243L148.952 141.033C148.262 140.9 147.785 140.767 147.785 140.357C147.785 139.907 148.248 139.707 148.832 139.707C149.682 139.707 150.025 140.132 150.052 140.635H151.748C151.655 139.31 150.595 138.422 148.885 138.422C147.123 138.422 146.075 139.388 146.075 140.648C146.075 142.185 147.322 142.437 148.395 142.637L149.283 142.795C149.92 142.915 150.198 143.1 150.198 143.472C150.198 143.803 149.88 144.133 149.123 144.133C148.023 144.133 147.667 143.563 147.653 143.073H145.93ZM125.373 136.195V139.045C124.787 138.637 124.088 138.419 123.373 138.422C121.437 138.422 119.873 139.985 119.873 141.922C119.873 143.868 121.437 145.42 123.373 145.42C124.113 145.42 124.803 145.195 125.373 144.797V145.273H127.057V136.195H125.373ZM135.75 136.195V139.045C135.163 138.637 134.465 138.419 133.75 138.422C131.815 138.422 130.25 139.985 130.25 141.922C130.248 142.382 130.338 142.837 130.513 143.263C130.689 143.688 130.946 144.074 131.272 144.399C131.597 144.725 131.984 144.982 132.409 145.157C132.834 145.333 133.29 145.422 133.75 145.42C134.492 145.42 135.18 145.195 135.75 144.797V145.273H137.433V136.195H135.75ZM116.373 134.195L117.513 136.195H125.373L122.258 130.813L116.375 134.193L116.373 134.195ZM129.562 137.878V136.195H135.75L129.15 124.77L123.252 128.15L127.878 136.195V137.878H129.562ZM138.257 136.195H146.128L135.95 118.58L130.065 121.973L138.257 136.195Z" fill="black"/>
</g>
<defs>
<clipPath id="clip0_1_1793">
<rect width="40" height="40" fill="white" transform="translate(20 20)"/>
</clipPath>
<clipPath id="clip1_1_1793">
<rect width="40" height="40" fill="white" transform="translate(112 20)"/>
</clipPath>
<clipPath id="clip2_1_1793">
<rect width="40" height="40" fill="white" transform="translate(112 112)"/>
</clipPath>
</defs>
</svg>
