<svg width="49" height="20" viewBox="0 0 49 20" fill="none" xmlns="http://www.w3.org/2000/svg">
<path d="M8.95346 2.56065C8.37929 3.2349 7.46061 3.76521 6.54194 3.68945C6.4271 2.78035 6.87878 1.81064 7.40702 1.21972C7.98119 0.530312 8.98408 0.0378794 9.80323 0C9.8951 0.939409 9.51997 1.87124 8.95346 2.56065ZM9.78792 3.8637C8.45584 3.78794 7.31515 4.61371 6.68739 4.61371C6.04432 4.61371 5.07971 3.90158 4.02323 3.92431C2.65288 3.94703 1.38204 4.7122 0.68538 5.93192C-0.753878 8.37892 0.310254 11.9926 1.70358 13.9851C2.38493 14.9699 3.19643 16.0533 4.26821 16.0154C5.28641 15.9775 5.6845 15.3639 6.90941 15.3639C8.14196 15.3639 8.50178 16.0154 9.57356 16.0003C10.6836 15.9775 11.3803 15.0154 12.0616 14.0305C12.8349 12.9093 13.1564 11.826 13.1717 11.7653C13.1487 11.7426 11.0281 10.9396 11.0052 8.51529C10.9822 6.48495 12.6817 5.52282 12.7583 5.46221C11.8014 4.0531 10.3085 3.90158 9.78792 3.8637ZM17.4742 1.12123V15.8866H19.7938V10.8411H23.0015C25.9336 10.8411 27.9853 8.84863 27.9853 5.96979C27.9853 3.09096 25.9643 1.12123 23.0781 1.12123H17.4742ZM19.7938 3.05308H22.4656C24.4791 3.05308 25.6274 4.1137 25.6274 5.97737C25.6274 7.84104 24.4791 8.91681 22.458 8.91681H19.7938V3.05308ZM32.2113 16.0003C33.6658 16.0003 35.0132 15.273 35.6257 14.1139H35.6716V15.8866H37.8152V8.53802C37.8152 6.40919 36.0927 5.03039 33.4438 5.03039C30.9864 5.03039 29.1643 6.42435 29.0954 8.33347H31.1854C31.3615 7.42436 32.2113 6.82587 33.3749 6.82587C34.7912 6.82587 35.5874 7.4774 35.5874 8.68196V9.50015L32.6936 9.6744C30.0064 9.83349 28.5519 10.9244 28.5519 12.8184C28.5595 14.7275 30.06 16.0003 32.2113 16.0003ZM32.839 14.2502C31.6065 14.2502 30.8179 13.6593 30.8179 12.7654C30.8179 11.8335 31.5758 11.2956 33.0227 11.2123L35.595 11.0532V11.8866C35.595 13.2654 34.4084 14.2502 32.839 14.2502ZM40.686 19.9018C42.9444 19.9018 44.0086 19.0458 44.9349 16.4624L49 5.17433H46.6421L43.9167 13.8942H43.8708L41.1454 5.17433H38.7262L42.6459 15.9245L42.4315 16.576C42.0794 17.6821 41.5052 18.1139 40.4793 18.1139C40.2956 18.1139 39.9434 18.0912 39.798 18.0761V19.8488C39.9358 19.8791 40.51 19.9018 40.686 19.9018Z" fill="black"/>
</svg>
