<svg width="20" height="20" viewBox="0 0 20 20" fill="none" xmlns="http://www.w3.org/2000/svg">
<path fill-rule="evenodd" clip-rule="evenodd" d="M14.3333 17.4168C16.9567 17.4168 19.0833 15.2902 19.0833 12.6668C19.0833 11.6711 18.2839 11.0261 17.6145 10.7791C17.416 10.7059 17.2624 10.6099 17.1629 10.4967C17.0766 10.3985 17 10.2545 17 10.0002C17 9.74581 17.0766 9.60183 17.1629 9.50366C17.2624 9.3904 17.416 9.29438 17.6144 9.22118C18.2839 8.97426 19.0833 8.32926 19.0833 7.3335C19.0833 4.71014 16.9566 2.5835 14.3333 2.5835L5.66664 2.5835C3.04329 2.5835 0.916642 4.71014 0.916643 7.3335C0.916643 8.32926 1.71606 8.97426 2.38548 9.22118C2.58395 9.29438 2.73751 9.3904 2.83705 9.50366C2.92334 9.60183 2.99995 9.74581 2.99995 10.0002C2.99995 10.2545 2.92334 10.3985 2.83705 10.4967C2.7375 10.6099 2.58394 10.7059 2.38548 10.7791L2.06101 10.8988C2.06098 10.8988 2.06095 10.8988 2.06091 10.8989C1.76773 11.007 1.41939 11.1696 1.18399 11.5073C0.948568 11.8451 0.916624 12.2282 0.916626 12.5407L0.916628 12.6669L0.916628 12.6669C0.916664 15.2902 3.04329 17.4168 5.66661 17.4168H5.66665H14.3333ZM17.5833 12.6668C17.5833 14.4618 16.1282 15.9168 14.3333 15.9168H5.66665H5.66661C3.87171 15.9168 2.41665 14.4618 2.41663 12.6669V12.6668L2.41663 12.5407C2.41663 12.4349 2.48083 12.3428 2.58011 12.3061L2.5802 12.3061L2.90457 12.1865C3.24715 12.0601 3.64605 11.8483 3.9637 11.4869C4.29462 11.1105 4.49995 10.6129 4.49995 10.0002C4.49995 9.38742 4.29462 8.88987 3.96371 8.51338C3.64606 8.15198 3.24716 7.94023 2.90458 7.81386C2.74685 7.75568 2.61093 7.663 2.52303 7.56373C2.43839 7.46815 2.41664 7.39036 2.41664 7.3335C2.41664 5.53857 3.87172 4.0835 5.66664 4.0835L14.3333 4.0835C16.1282 4.0835 17.5833 5.53857 17.5833 7.3335C17.5833 7.39036 17.5615 7.46815 17.4769 7.56373C17.389 7.663 17.2531 7.75568 17.0953 7.81386C16.7528 7.94023 16.3539 8.15198 16.0362 8.51338C15.7053 8.88986 15.5 9.38742 15.5 10.0002C15.5 10.6129 15.7053 11.1105 16.0362 11.487C16.3539 11.8484 16.7528 12.0601 17.0954 12.1865C17.2531 12.2446 17.389 12.3373 17.4769 12.4366C17.5616 12.5322 17.5833 12.61 17.5833 12.6668Z" fill="#BABABA"/>
<path d="M11.6666 14.1665L11.6666 13.3332" stroke="#BABABA" stroke-width="1.5" stroke-linecap="round" stroke-linejoin="round"/>
<path d="M11.6666 9.5835L11.6666 10.4168" stroke="#BABABA" stroke-width="1.5" stroke-linecap="round" stroke-linejoin="round"/>
<path d="M11.6666 5.8335L11.6666 6.66683" stroke="#BABABA" stroke-width="1.5" stroke-linecap="round" stroke-linejoin="round"/>
</svg>
