<svg width="280" height="345" viewBox="0 0 280 345" fill="none" xmlns="http://www.w3.org/2000/svg">
<g clip-path="url(#clip0_8_1218)">
<path opacity="0.3" d="M141.498 5.30556C120.679 14.9008 109.796 37.4327 96.7955 56.3523C86.0632 71.9411 73.0435 85.8168 58.1764 97.5102C47.1134 106.202 35.0365 113.675 25.0099 123.542C12.0445 135.976 3.51128 152.331 0.72086 170.095C-0.607726 178.925 -0.0921459 187.935 2.23494 196.555C4.56203 205.175 8.64993 213.217 14.2398 220.171C25.1676 233.131 41.0749 240.491 55.2924 249.725C68.908 258.561 81.2178 269.269 91.8611 281.536C98.9586 289.754 105.38 298.627 112.635 306.619C131.9 327.503 162.655 343.487 191.766 339.378C246.473 331.679 285.475 272.911 279.346 219.494C276.507 194.659 266.053 171.021 251.88 150.408C241.764 135.665 229.529 121.961 223.446 105.119C216.799 86.6958 218.173 66.3991 214.636 47.1183C208.011 11.5368 176.467 -10.7693 141.498 5.30556Z" fill="#0AA066"/>
<path d="M208.012 24.2251H65.6345C50.6509 24.2251 38.4839 33.7978 38.4839 45.6281V300.749C38.4839 312.579 50.6509 322.174 65.6345 322.174H208.012C222.995 322.174 235.049 312.579 235.049 300.749V45.6281C235.049 33.7978 222.882 24.2251 208.012 24.2251Z" fill="#5A5A5A"/>
<path d="M207.133 30.9985H66.4008C55.135 30.9985 45.8745 38.2458 45.8745 47.1863V299.191C45.8745 308.222 55.0674 315.379 66.4008 315.379H207.133C218.399 315.379 227.659 308.132 227.659 299.191V47.1863C227.659 38.2458 218.466 30.9985 207.133 30.9985Z" fill="white"/>
<path d="M31.7922 107.286C27.645 107.286 23.6677 105.635 20.7352 102.697C17.8027 99.7586 16.1553 95.7732 16.1553 91.6177L52.386 31.0435H83.6374L47.4066 91.4822C47.4244 93.5493 47.0339 95.5995 46.2575 97.5147C45.481 99.4299 44.334 101.172 42.8826 102.641C41.4312 104.11 39.7041 105.277 37.8006 106.074C35.8972 106.871 33.8552 107.283 31.7922 107.286Z" fill="#0AA066"/>
<path d="M62.9758 107.286C60.9128 107.283 58.8708 106.872 56.9674 106.074C55.0639 105.277 53.3368 104.11 51.8854 102.641C50.434 101.172 49.287 99.4301 48.5106 97.5149C47.7341 95.5997 47.3436 93.5495 47.3614 91.4825L83.5922 30.9082H114.844L78.6128 91.4825C78.6306 93.5514 78.2393 95.6035 77.4615 97.5201C76.6837 99.4368 75.5347 101.18 74.0809 102.649C72.6271 104.119 70.8972 105.285 68.9912 106.081C67.0852 106.877 65.0407 107.286 62.9758 107.286Z" fill="#0AA066" fill-opacity="0.5"/>
<path d="M94.1822 107.286C90.039 107.28 86.0675 105.627 83.1399 102.689C80.2122 99.7513 78.5679 95.7693 78.5679 91.6177L114.776 31.0435H146.05L109.819 91.4822C109.837 93.5512 109.446 95.6033 108.668 97.5199C107.89 99.4366 106.741 101.18 105.287 102.649C103.834 104.119 102.104 105.285 100.198 106.081C98.2916 106.877 96.2471 107.286 94.1822 107.286Z" fill="#0AA066"/>
<path d="M125.388 107.286C121.241 107.286 117.264 105.635 114.331 102.697C111.399 99.7586 109.751 95.7732 109.751 91.6177L145.982 31.0435H177.234L141.003 91.4822C141.021 93.5493 140.63 95.5995 139.854 97.5147C139.077 99.4299 137.93 101.172 136.479 102.641C135.027 104.11 133.3 105.277 131.397 106.074C129.493 106.871 127.451 107.283 125.388 107.286Z" fill="#0AA066" fill-opacity="0.5"/>
<path d="M156.594 107.286C152.447 107.286 148.47 105.635 145.537 102.697C142.605 99.7586 140.958 95.7732 140.958 91.6177L177.188 31.0435H208.44L172.209 91.4822C172.227 93.5493 171.836 95.5995 171.06 97.5147C170.283 99.4299 169.136 101.172 167.685 102.641C166.233 104.11 164.506 105.277 162.603 106.074C160.699 106.871 158.657 107.283 156.594 107.286Z" fill="#0AA066"/>
<path d="M208.5 31L172 91.5C171.92 93.6062 172.879 95.689 173.629 97.6584C174.378 99.6278 175.516 101.426 176.975 102.944C178.434 104.462 180.184 105.67 182.119 106.495C184.055 107.32 186.136 107.745 188.24 107.745C190.343 107.745 192.425 107.32 194.361 106.495C196.296 105.67 198.046 104.462 199.505 102.944C200.964 101.426 202.102 99.6278 202.851 97.6584C203.6 95.689 203.945 93.5884 203.866 91.4822L227.884 51.2951V47.0957C227.884 38.6293 219.157 31.5644 208.5 31Z" fill="#0AA066" fill-opacity="0.5"/>
<path d="M160.177 265.867H95.4888V269.863H160.177V265.867Z" fill="#CEECE0"/>
<path d="M204.722 148.715L172.952 133.024H153.305C153.449 133.897 153.524 134.78 153.53 135.665C153.53 140.204 151.731 144.557 148.528 147.766C145.325 150.976 140.981 152.779 136.451 152.779C131.922 152.779 127.577 150.976 124.375 147.766C121.172 144.557 119.372 140.204 119.372 135.665C119.378 134.78 119.454 133.897 119.598 133.024H99.8599L68.0903 148.715V174.317H95.6915V240.491H177.053V174.317H204.654L204.722 148.715Z" fill="#0AA066"/>
<path d="M136.451 144.719C133.014 144.824 129.613 143.994 126.61 142.316C123.606 140.639 121.113 138.176 119.395 135.191C119.395 135.349 119.395 135.508 119.395 135.666C119.395 140.204 121.194 144.557 124.397 147.767C127.6 150.976 131.944 152.779 136.474 152.779C141.004 152.779 145.348 150.976 148.551 147.767C151.754 144.557 153.553 140.204 153.553 135.666C153.553 135.508 153.553 135.349 153.553 135.191C151.832 138.183 149.331 140.65 146.319 142.328C143.307 144.006 139.896 144.833 136.451 144.719Z" fill="#0AA066"/>
<path d="M105.448 166.167H124.217V176.394C124.217 178.664 123.317 180.84 121.715 182.445C120.114 184.05 117.942 184.951 115.677 184.951H114.01C111.745 184.951 109.573 184.05 107.971 182.445C106.37 180.84 105.47 178.664 105.47 176.394V166.167H105.448Z" fill="#0AA066"/>
<path d="M160.177 256.565H95.4888V260.562H160.177V256.565Z" fill="#CEECE0"/>
<path d="M160.177 275.146H95.4888V279.143H160.177V275.146Z" fill="#CEECE0"/>
<path d="M176.557 256.565H167.905V265.235H176.557V256.565Z" fill="#0AA066"/>
<path d="M176.557 269.864H167.905V278.533H176.557V269.864Z" fill="white"/>
<path d="M39.4303 343.916C38.7057 343.441 38.0819 342.828 37.5944 342.111C37.107 341.394 36.7656 340.587 36.5897 339.738C36.4139 338.889 36.4071 338.013 36.5698 337.161C36.7325 336.308 37.0614 335.497 37.5376 334.772L67.3244 289.393L78.3424 296.662L48.5331 342.087C48.0559 342.807 47.4417 343.426 46.7257 343.907C46.0097 344.389 45.2059 344.724 44.3603 344.894C43.5147 345.064 42.6441 345.065 41.7981 344.897C40.9521 344.729 40.1475 344.396 39.4303 343.916Z" fill="#8C968C"/>
<path d="M87.3868 286.996L72.0269 276.871L61.1046 293.506L76.4645 303.632L87.3868 286.996Z" fill="#323232"/>
<path d="M120.528 289.727C149.839 283.608 168.649 254.838 162.541 225.469C156.434 196.099 127.722 177.251 98.412 183.371C69.1016 189.49 50.2917 218.26 56.399 247.629C62.5062 276.999 91.2179 295.847 120.528 289.727Z" stroke="#646464" stroke-width="4" stroke-miterlimit="10"/>
<path opacity="0.31" d="M120.528 289.727C149.839 283.608 168.649 254.838 162.541 225.469C156.434 196.099 127.722 177.251 98.412 183.371C69.1016 189.49 50.2917 218.26 56.399 247.629C62.5062 276.999 91.2179 295.847 120.528 289.727Z" fill="white"/>
<path opacity="0.31" d="M146.635 245.48C143.964 249.551 140.148 252.736 135.669 254.633C131.191 256.53 126.252 257.054 121.477 256.138C116.702 255.223 112.305 252.909 108.842 249.489C105.379 246.069 103.006 241.698 102.023 236.927C101.04 232.155 101.491 227.199 103.319 222.685C105.146 218.171 108.269 214.301 112.292 211.565C116.315 208.829 121.057 207.35 125.919 207.315C130.78 207.279 135.543 208.689 139.605 211.366C145.052 214.956 148.853 220.567 150.171 226.965C151.49 233.362 150.218 240.022 146.635 245.48Z" fill="white"/>
</g>
<defs>
<clipPath id="clip0_8_1218">
<rect width="280" height="345" fill="white"/>
</clipPath>
</defs>
</svg>
