<svg width="316" height="298" viewBox="0 0 316 298" fill="none" xmlns="http://www.w3.org/2000/svg">
<path d="M3.03191 41.6568C-4.8498 64.8064 4.54575 89.7849 9.61599 113.729C13.7793 133.495 14.9299 153.778 13.0283 173.889C11.6346 188.833 8.53472 203.68 8.77501 218.696C8.86624 237.845 15.2127 256.439 26.8453 271.637C32.7029 279.156 40.0578 285.372 48.443 289.892C56.8283 294.412 66.0604 297.136 75.5532 297.891C93.5754 298.95 110.949 292.043 128.418 287.784C145.23 283.701 162.536 282.024 179.818 282.803C191.352 283.308 202.862 284.921 214.42 285.089C244.698 285.474 279.612 273.37 297.803 247.814C332.021 199.686 315.272 126.459 269.544 92.0229C248.23 75.9721 222.35 66.7556 196.038 62.5925C177.222 59.6326 157.59 59.031 140.193 51.4027C120.969 43.0525 106.431 27.0739 88.9377 15.6676C56.714 -5.34037 16.2722 2.86549 3.03191 41.6568Z" fill="#B6E3D2"/>
<g style="mix-blend-mode:multiply">
<path d="M270.577 253.397H37.2259V265.501H270.577V253.397Z" fill="#5A5A5A"/>
</g>
<path d="M223.431 111.924H47.054V256.188H223.431V111.924Z" fill="#0AA066"/>
<path d="M260.245 111.924H217.256V256.188H260.245V111.924Z" fill="#0A8555"/>
<path d="M89.9949 111.924H47.0541L23.0245 85.0443H65.9653L89.9949 111.924Z" fill="#EDFFF8"/>
<path d="M217.256 111.924H260.196L284.226 85.0443H241.285L217.256 111.924Z" fill="#EDFFF8"/>
<path d="M166.121 158.945H47.054V221.103H166.121V158.945Z" fill="white"/>
<path d="M140.433 170.784H56.4977V175.669H140.433V170.784Z" fill="#0AA066"/>
<path d="M140.433 181.614H56.4977V186.499H140.433V181.614Z" fill="#0AA066"/>
<path d="M97.1318 192.418H56.4977V197.303H97.1318V192.418Z" fill="#0AA066"/>
<path d="M176.742 198.434C176.742 200.814 176.037 203.14 174.717 205.119C173.397 207.098 171.52 208.64 169.325 209.55C167.129 210.461 164.714 210.699 162.383 210.235C160.052 209.771 157.911 208.625 156.231 206.942C154.551 205.26 153.407 203.116 152.943 200.782C152.479 198.448 152.717 196.028 153.627 193.83C154.536 191.631 156.076 189.752 158.052 188.43C160.028 187.108 162.351 186.402 164.727 186.402C167.913 186.402 170.969 187.67 173.223 189.926C175.476 192.183 176.742 195.243 176.742 198.434Z" fill="#0AA066"/>
<path d="M120.561 54.0016L139.784 85.0202L170.782 65.7689C170.782 65.7689 193.899 54.0497 197.215 40.1406C200.771 24.9562 192.073 13.4295 178.76 10.3012C174.725 9.35164 170.516 9.43125 166.52 10.5328C162.523 11.6343 158.866 13.7224 155.884 16.606C154.502 12.6954 152.16 9.19562 149.074 6.42868C145.988 3.66174 142.256 1.71645 138.222 0.771813C124.886 -2.35652 111.982 4.06861 108.426 19.253C105.182 33.1861 120.561 54.0016 120.561 54.0016Z" fill="#0AA066"/>
</svg>
