<svg width="40" height="40" viewBox="0 0 40 40" fill="none" xmlns="http://www.w3.org/2000/svg">
<g clip-path="url(#clip0_1_1210)">
<path d="M14.25 16.48C15.785 16.48 17.0133 16.8633 17.9517 17.7166C18.5933 18.2983 18.9517 19.1266 18.9417 19.995C18.9393 20.4234 18.8504 20.847 18.6803 21.2402C18.5102 21.6335 18.2623 21.9883 17.9517 22.2833C17.0733 23.09 15.705 23.52 14.2517 23.52C12.7967 23.52 11.4517 23.09 10.56 22.2833C10.2385 21.996 9.98245 21.643 9.80907 21.2483C9.6357 20.8535 9.54906 20.4261 9.555 19.995C9.555 19.1316 9.91834 18.3033 10.56 17.7166C11.3933 16.96 12.8667 16.48 14.25 16.48ZM14.255 22.5966C15.0233 22.5966 15.735 22.3283 16.235 21.8333C16.735 21.3333 16.9567 20.7333 16.9567 19.995C16.9567 19.2883 16.71 18.6266 16.235 18.1566C15.745 17.6733 15.0133 17.3983 14.255 17.3983C13.4967 17.3983 12.7667 17.6716 12.2717 18.1566C11.7967 18.6266 11.5483 19.2883 11.5483 19.995C11.5382 20.6791 11.7981 21.3396 12.2717 21.8333C12.7667 22.3233 13.4933 22.5966 14.255 22.5966ZM6.18667 19.3166C6.45334 19.3866 6.71167 19.4733 6.96334 19.5883C7.19684 19.6946 7.41046 19.8401 7.595 20.0183C7.92334 20.3616 8.11 20.8216 8.105 21.295C8.10858 21.546 8.0533 21.7943 7.94361 22.02C7.83391 22.2458 7.67285 22.4427 7.47334 22.595C7.12041 22.8625 6.71919 23.0594 6.29167 23.175C5.64815 23.377 4.97599 23.4727 4.30167 23.4583C3.715 23.4583 3.39167 23.39 2.94667 23.2966L2.81834 23.27C2.32797 23.1615 1.84912 23.0064 1.38834 22.8066C1.36773 22.7927 1.34321 22.7857 1.31834 22.7866C1.28179 22.7875 1.24703 22.8027 1.22149 22.8288C1.19595 22.855 1.18166 22.8901 1.18167 22.9266V23.265H0.201671V20.8016H1.075C1.08038 21.0514 1.15986 21.2939 1.30334 21.4983C1.65667 21.9316 2.03667 22.0983 2.39834 22.2316C3.01 22.4316 3.65167 22.5383 4.29167 22.5583C5.21334 22.5583 5.75167 22.335 5.86834 22.2866L5.88334 22.28L5.89334 22.2766C5.99667 22.2383 6.41334 22.0866 6.41334 21.6233C6.41334 21.1666 6.02334 21.0666 5.76834 21.0016L5.73167 20.9933C5.44834 20.9166 4.795 20.8466 4.08167 20.7716L3.82834 20.745C3.15941 20.6769 2.49377 20.5795 1.83334 20.4533C1.00334 20.27 0.676671 19.9666 0.473338 19.7783L0.460004 19.765C0.163592 19.4489 -0.000947869 19.0316 4.10792e-06 18.5983C4.10792e-06 17.7716 0.566671 17.2716 1.26167 16.965C2.005 16.6316 2.88834 16.4833 3.66167 16.4833C5.02834 16.4883 6.14 16.9333 6.54 17.14C6.70167 17.2266 6.78167 17.12 6.78167 17.04V16.7916H7.66V18.9383H6.87334C6.80271 18.6198 6.6308 18.3327 6.38334 18.12C6.23253 17.9987 6.06602 17.8983 5.88834 17.8216C5.22893 17.5432 4.51906 17.4042 3.80334 17.4133C3.065 17.4133 2.35834 17.555 2.00334 17.7716C1.78334 17.9083 1.67 18.08 1.67 18.2816C1.67 18.57 1.91334 18.685 2.03667 18.72C2.36334 18.82 3.09 18.8916 3.655 18.9483L3.995 18.9833C4.54 19.0383 5.68167 19.19 6.18667 19.3166ZM36.465 17.655V16.8566H40V17.64H39.2067C38.92 17.64 38.8033 17.695 38.5867 17.9383L36.2083 20.655C36.1833 20.6884 36.1719 20.7301 36.1767 20.7716V22.0083C36.1806 22.0658 36.1873 22.1231 36.1967 22.18C36.2109 22.2162 36.2333 22.2487 36.2622 22.2747C36.2912 22.3008 36.3258 22.3197 36.3633 22.33C36.4351 22.3406 36.5075 22.3461 36.58 22.3466H37.39V23.13H33.1V22.3466H33.8667C33.9392 22.3461 34.0116 22.3406 34.0833 22.33C34.1214 22.3191 34.1567 22.3001 34.1866 22.2742C34.2165 22.2482 34.2405 22.2161 34.2567 22.18C34.2666 22.125 34.2716 22.0692 34.2717 22.0133V20.7766C34.2717 20.735 34.2717 20.735 34.2167 20.67C33.4338 19.778 32.6493 18.8875 31.8633 17.9983C31.7367 17.8666 31.52 17.655 31.1867 17.655H30.4233V16.8716H34.7367V17.655H34.2167C34.1 17.655 34.02 17.7716 34.12 17.8983L35.585 19.65C35.6 19.67 35.61 19.67 35.63 19.655C35.65 19.64 37.12 17.9133 37.13 17.8983C37.1421 17.8824 37.151 17.8642 37.156 17.8448C37.1611 17.8254 37.1623 17.8052 37.1595 17.7854C37.1567 17.7656 37.15 17.7465 37.1398 17.7292C37.1296 17.712 37.1161 17.697 37.1 17.685C37.0703 17.6655 37.0355 17.6551 37 17.655H36.465ZM25.9917 17.65H26.8C27.1683 17.65 27.2333 17.7916 27.2383 18.135L27.285 20.745L22.9817 16.8716H19.9067V17.655H20.5933C21.0883 17.655 21.1233 17.9283 21.1233 18.1716V21.86C21.1233 22.0733 21.125 22.3516 20.82 22.3516H19.9767V23.13H23.5833V22.3466H22.7033C22.35 22.3466 22.3367 22.185 22.33 21.8416V18.705L27.285 23.1233H28.5467L28.48 18.13C28.4867 17.7666 28.5117 17.645 28.885 17.645H29.6733V16.8616H25.9917V17.65Z" fill="black"/>
</g>
<defs>
<clipPath id="clip0_1_1210">
<rect width="40" height="40" fill="white"/>
</clipPath>
</defs>
</svg>
