<svg width="56" height="10" viewBox="0 0 56 10" fill="none" xmlns="http://www.w3.org/2000/svg">
<path d="M19.95 0C22.099 0 23.8187 0.536668 25.1323 1.73133C26.0307 2.54567 26.5323 3.70533 26.5183 4.921C26.5151 5.52083 26.3906 6.11381 26.1524 6.66434C25.9142 7.21486 25.5673 7.71158 25.1323 8.12467C23.9027 9.254 21.987 9.856 19.9523 9.856C17.9153 9.856 16.0323 9.254 14.784 8.12467C14.3339 7.72242 13.9754 7.22826 13.7327 6.67558C13.49 6.12291 13.3687 5.52457 13.377 4.921C13.377 3.71233 13.8857 2.55267 14.784 1.73133C15.9507 0.672001 18.0133 0 19.95 0ZM19.957 8.56333C21.0327 8.56333 22.029 8.18767 22.729 7.49467C23.429 6.79467 23.7393 5.95467 23.7393 4.921C23.7393 3.93167 23.394 3.00533 22.729 2.34733C22.043 1.67067 21.0187 1.28567 19.957 1.28567C18.8953 1.28567 17.8733 1.66833 17.1803 2.34733C16.5153 3.00533 16.1677 3.93167 16.1677 4.921C16.1535 5.87871 16.5173 6.80343 17.1803 7.49467C17.8733 8.18067 18.8907 8.56333 19.957 8.56333ZM8.66134 3.97133C9.03467 4.06933 9.39634 4.19067 9.74867 4.35167C10.0756 4.50053 10.3747 4.70412 10.633 4.95367C11.0927 5.43433 11.354 6.07834 11.347 6.741C11.352 7.09236 11.2746 7.44 11.121 7.75606C10.9675 8.07211 10.742 8.3478 10.4627 8.561C9.96858 8.93553 9.40687 9.21124 8.80834 9.373C7.9074 9.65576 6.96639 9.78974 6.02234 9.76967C5.20101 9.76967 4.74834 9.674 4.12534 9.54333L3.94567 9.506C3.25916 9.35418 2.58877 9.13696 1.94367 8.85733C1.91483 8.83779 1.88049 8.82798 1.84567 8.82933C1.7945 8.83055 1.74584 8.85174 1.71009 8.88836C1.67433 8.92499 1.65432 8.97415 1.65434 9.02533V9.499H0.282339V6.05033H1.50501C1.51253 6.39994 1.6238 6.73943 1.82467 7.02567C2.31934 7.63233 2.85134 7.86567 3.35767 8.05233C4.21401 8.33233 5.11234 8.48167 6.00834 8.50967C7.29867 8.50967 8.05234 8.197 8.21567 8.12933L8.23667 8.12L8.25067 8.11533C8.39534 8.06167 8.97867 7.84933 8.97867 7.20067C8.97867 6.56133 8.43267 6.42133 8.07567 6.33033L8.02434 6.31867C7.62767 6.21133 6.71301 6.11334 5.71434 6.00834L5.35967 5.971C4.42317 5.87563 3.49128 5.73939 2.56667 5.56267C1.40467 5.306 0.947339 4.88133 0.662672 4.61767L0.644006 4.599C0.229029 4.15653 -0.00132702 3.57229 5.75109e-06 2.96567C5.75109e-06 1.80834 0.793339 1.10833 1.76634 0.679001C2.80701 0.212334 4.04367 0.00466855 5.12634 0.00466855C7.03967 0.0116686 8.59601 0.634669 9.156 0.924002C9.38234 1.04534 9.49434 0.896001 9.49434 0.784001V0.436334H10.724V3.44167H9.62267C9.52379 2.99569 9.28311 2.59374 8.93667 2.296C8.72554 2.1262 8.49243 1.98571 8.24367 1.87833C7.3205 1.48853 6.32668 1.2939 5.32467 1.30667C4.29101 1.30667 3.30167 1.505 2.80467 1.80833C2.49667 1.99967 2.33801 2.24 2.33801 2.52233C2.33801 2.926 2.67867 3.087 2.85134 3.136C3.30867 3.276 4.32601 3.37634 5.11701 3.45567L5.59301 3.50467C6.35601 3.58167 7.95434 3.794 8.66134 3.97133ZM51.051 1.645V0.527335H56V1.624H54.8893C54.488 1.624 54.3247 1.701 54.0213 2.04167L50.6917 5.845C50.6565 5.89177 50.6407 5.95022 50.6473 6.00834V7.73967C50.6529 7.82017 50.6623 7.90037 50.6753 7.98C50.6952 8.03075 50.7266 8.07617 50.7671 8.11263C50.8076 8.14909 50.8561 8.17558 50.9087 8.19C51.0091 8.20481 51.1105 8.21261 51.212 8.21333H52.346V9.31H46.34V8.21333H47.4133C47.5149 8.21263 47.6162 8.20483 47.7167 8.19C47.77 8.1748 47.8193 8.14812 47.8612 8.11185C47.9032 8.07557 47.9366 8.03057 47.9593 7.98C47.9733 7.903 47.9803 7.82492 47.9803 7.74667V6.01533C47.9803 5.957 47.9803 5.957 47.9033 5.866C46.8073 4.61729 45.7091 3.37051 44.6087 2.12567C44.4313 1.94133 44.128 1.645 43.6613 1.645H42.5927V0.548335H48.6313V1.645H47.9033C47.74 1.645 47.628 1.80834 47.768 1.98567L49.819 4.438C49.84 4.466 49.854 4.466 49.882 4.445C49.91 4.424 51.968 2.00667 51.982 1.98567C51.999 1.96335 52.0114 1.93788 52.0184 1.91075C52.0255 1.88362 52.0271 1.85535 52.0232 1.82758C52.0193 1.79981 52.01 1.77309 51.9957 1.74897C51.9814 1.72484 51.9625 1.70378 51.94 1.687C51.8984 1.65973 51.8498 1.64514 51.8 1.645H51.051ZM36.3883 1.638H37.52C38.0357 1.638 38.1267 1.83633 38.1337 2.317L38.199 5.971L32.1743 0.548335H27.8693V1.645H28.8307C29.5237 1.645 29.5727 2.02767 29.5727 2.36833V7.532C29.5727 7.83067 29.575 8.22034 29.148 8.22034H27.9673V9.31H33.0167V8.21333H31.7847C31.29 8.21333 31.2713 7.987 31.262 7.50633V3.115L38.199 9.30067H39.9653L39.872 2.31C39.8813 1.80133 39.9163 1.631 40.439 1.631H41.5427V0.534334H36.3883V1.638Z" fill="black"/>
</svg>
