<svg width="21" height="21" viewBox="0 0 21 21" fill="none" xmlns="http://www.w3.org/2000/svg">
<g clip-path="url(#clip0_1_891)">
<path d="M4.65403 12.6906L3.92305 15.4194L1.25134 15.4759C0.452894 13.995 0 12.3006 0 10.5C0 8.75888 0.423444 7.11694 1.17403 5.67119H1.1746L3.55318 6.10726L4.59513 8.47156C4.37705 9.10734 4.25819 9.78984 4.25819 10.5C4.25827 11.2708 4.39789 12.0093 4.65403 12.6906Z" fill="#FBBB00"/>
<path d="M20.8165 8.53833C20.9371 9.1735 21 9.82946 21 10.4999C21 11.2516 20.9209 11.9849 20.7704 12.6922C20.2592 15.0991 18.9236 17.2008 17.0735 18.6881L17.0729 18.6875L14.077 18.5347L13.6529 15.8877C14.8806 15.1678 15.8401 14.041 16.3455 12.6922H10.7308V8.53833H16.4274H20.8165Z" fill="#518EF8"/>
<path d="M17.0727 18.6877L17.0732 18.6883C15.2738 20.1346 12.9881 21 10.4998 21C6.50116 21 3.02464 18.7651 1.25117 15.476L4.65386 12.6907C5.54058 15.0572 7.82346 16.7418 10.4998 16.7418C11.6502 16.7418 12.7279 16.4308 13.6527 15.8879L17.0727 18.6877Z" fill="#28B446"/>
<path d="M17.2021 2.41729L13.8005 5.20208C12.8434 4.60383 11.7121 4.25823 10.5 4.25823C7.76304 4.25823 5.43746 6.02014 4.59517 8.47151L1.17459 5.67114H1.17402C2.92153 2.30191 6.44189 0 10.5 0C13.0476 0 15.3836 0.90751 17.2021 2.41729Z" fill="#F14336"/>
</g>
<defs>
<clipPath id="clip0_1_891">
<rect width="20.8" height="20.8" fill="white" transform="scale(1.00961)"/>
</clipPath>
</defs>
</svg>
