<svg width="24" height="25" viewBox="0 0 24 25" fill="none" xmlns="http://www.w3.org/2000/svg">
<path d="M4.43141 15.4116C4.91901 12.4859 5.16281 11.0231 6.13201 10.1014C6.24307 9.99581 6.36011 9.89667 6.48254 9.80448C7.55103 9 9.03402 9 12 9V9C14.966 9 16.449 9 17.5175 9.80448C17.6399 9.89667 17.7569 9.99581 17.868 10.1014C18.8372 11.0231 19.081 12.4859 19.5686 15.4116L20.1119 18.6712C20.292 19.7522 20.3821 20.2927 20.0826 20.6464C19.783 21 19.235 21 18.1391 21H5.86092C4.76498 21 4.21701 21 3.91744 20.6464C3.61788 20.2927 3.70796 19.7522 3.88813 18.6712L4.43141 15.4116Z" stroke="black"/>
<path d="M8.5 11.5L8.5 8C8.5 6.067 10.067 4.5 12 4.5V4.5C13.933 4.5 15.5 6.067 15.5 8L15.5 11.5" stroke="black" stroke-linecap="round"/>
</svg>
