<svg width="24" height="24" viewBox="0 0 24 24" fill="none" xmlns="http://www.w3.org/2000/svg">
<path fill-rule="evenodd" clip-rule="evenodd" d="M14.3753 3.98156C13.6434 3.67099 12.8399 3.5 12.0002 3.5C8.89888 3.5 6.29354 5.83189 5.95106 8.9142L5.69926 11.1804L5.69301 11.2363C5.57212 12.2897 5.22922 13.3056 4.68694 14.2168L4.65807 14.265L4.08003 15.2284L4.06611 15.2516C3.81568 15.669 3.60823 16.0147 3.47339 16.301C3.3373 16.5899 3.23241 16.9025 3.28468 17.2338C3.34119 17.5919 3.52553 17.9175 3.80357 18.1502C4.06075 18.3655 4.38273 18.4364 4.70053 18.4683C5.0154 18.5 5.41859 18.5 5.90532 18.5H5.93239H18.0679H18.095C18.5817 18.5 18.9849 18.5 19.2998 18.4683C19.6176 18.4364 19.9396 18.3655 20.1968 18.1502C20.4748 17.9175 20.6591 17.5919 20.7156 17.2338C20.7679 16.9025 20.663 16.5899 20.5269 16.301C20.3921 16.0147 20.1847 15.669 19.9343 15.2517L19.9342 15.2516L19.9203 15.2284L19.3423 14.265L19.3134 14.2168C18.7711 13.3056 18.4282 12.2897 18.3073 11.2363L18.3011 11.1804L18.2586 10.798C17.9457 10.9016 17.6156 10.9677 17.2738 10.9908L17.3072 11.2909L17.3138 11.3503C17.4508 12.5442 17.8395 13.6955 18.454 14.7282L18.4848 14.7795L19.0628 15.7429C19.3307 16.1894 19.5114 16.4918 19.6222 16.7271C19.7343 16.9649 19.7322 17.0504 19.7279 17.0779C19.709 17.1973 19.6476 17.3058 19.5549 17.3834C19.5335 17.4013 19.4613 17.447 19.1997 17.4734C18.941 17.4994 18.5886 17.5 18.0679 17.5H5.93239C5.41171 17.5 5.05936 17.4994 4.80063 17.4734C4.53901 17.447 4.46682 17.4013 4.44542 17.3834C4.35274 17.3058 4.2913 17.1973 4.27246 17.0779C4.26811 17.0504 4.26605 16.9649 4.37808 16.7271C4.48887 16.4918 4.66964 16.1894 4.93753 15.7429L5.51556 14.7795L5.54627 14.7282C6.16086 13.6955 6.54948 12.5442 6.68649 11.3503L6.69314 11.2909L6.94494 9.02463C7.23115 6.44875 9.40843 4.5 12.0002 4.5C12.5838 4.5 13.1465 4.59884 13.6713 4.78142C13.8697 4.48435 14.1067 4.21532 14.3753 3.98156ZM16.1894 5.17115C15.8746 5.31089 15.6026 5.52951 15.3985 5.80192C16.2933 6.6054 16.9045 7.72482 17.0525 8.99933C17.4071 8.99021 17.7387 8.8888 18.0243 8.71822C17.8235 7.32034 17.1551 6.08721 16.1894 5.17115Z" fill="#333333"/>
<path d="M9.10222 18.4059C9.27315 19.1501 9.64978 19.8077 10.1737 20.2767C10.6976 20.7458 11.3396 21 12 21C12.6604 21 13.3024 20.7458 13.8263 20.2767C14.3502 19.8077 14.7269 19.1501 14.8978 18.4059" stroke="#333333" stroke-linecap="round"/>
<circle cx="17" cy="7" r="2" fill="#333333"/>
</svg>
