<svg width="25" height="24" viewBox="0 0 25 24" fill="none" xmlns="http://www.w3.org/2000/svg">
<path d="M5.5 9.92285C5.5 14.7747 9.74448 18.7869 11.6232 20.3252C11.8921 20.5454 12.0281 20.6568 12.2287 20.7132C12.3849 20.7572 12.6148 20.7572 12.771 20.7132C12.972 20.6567 13.1071 20.5463 13.377 20.3254C15.2557 18.7871 19.4999 14.7751 19.4999 9.9233C19.4999 8.08718 18.7625 6.32605 17.4497 5.02772C16.137 3.72939 14.3566 3 12.5001 3C10.6436 3 8.86301 3.7295 7.55025 5.02783C6.2375 6.32616 5.5 8.08674 5.5 9.92285Z" stroke="black" stroke-width="1.5" stroke-linecap="round" stroke-linejoin="round"/>
<path d="M10.5 9C10.5 10.1046 11.3954 11 12.5 11C13.6046 11 14.5 10.1046 14.5 9C14.5 7.89543 13.6046 7 12.5 7C11.3954 7 10.5 7.89543 10.5 9Z" stroke="black" stroke-width="1.5" stroke-linecap="round" stroke-linejoin="round"/>
</svg>
