<svg width="22" height="22" viewBox="0 0 22 22" fill="none" xmlns="http://www.w3.org/2000/svg">
<rect x="0.80957" y="0.880859" width="20.2381" height="20.2381" rx="5.95238" fill="#0AA066"/>
<mask id="mask0_88_152" style="mask-type:alpha" maskUnits="userSpaceOnUse" x="0" y="0" width="22" height="22">
<rect x="0.80957" y="0.880859" width="20.2381" height="20.2381" rx="5.95238" fill="#0ACF83"/>
</mask>
<g mask="url(#mask0_88_152)">
<path d="M13.8785 10.5177C14.2737 11.9924 13.3968 13.5087 11.92 13.9044C10.4433 14.3001 8.92575 13.4254 8.5306 11.9507C8.13545 10.476 9.01229 8.95968 10.4891 8.56398C11.9659 8.16828 13.4834 9.043 13.8785 10.5177Z" fill="white"/>
<path fill-rule="evenodd" clip-rule="evenodd" d="M0.578967 2.39745C0.203844 2.77212 0.203632 3.37937 0.578493 3.75378L5.28515 8.45475C4.64878 9.80346 4.46841 11.3753 4.88437 12.9277C5.81837 16.4134 9.40519 18.4809 12.8958 17.5456C16.3863 16.6103 18.4589 13.0264 17.5249 9.54071C16.5909 6.055 13.0041 3.98748 9.51348 4.92278C8.98795 5.0636 8.49456 5.26445 8.03873 5.51597L3.42645 0.909266C3.05159 0.534858 2.4436 0.535069 2.06848 0.909739L0.578967 2.39745ZM12.1803 14.8755C14.1941 14.3359 15.3898 12.2682 14.8509 10.2573C14.3121 8.24626 12.2428 7.05347 10.229 7.59306C8.21518 8.13266 7.0195 10.2003 7.55834 12.2113C8.09718 14.2223 10.1665 15.4151 12.1803 14.8755Z" fill="white"/>
</g>
</svg>