<svg width="24" height="25" viewBox="0 0 24 25" fill="none" xmlns="http://www.w3.org/2000/svg">
<path fill-rule="evenodd" clip-rule="evenodd" d="M4 6.5C4 5.94772 4.44772 5.5 5 5.5H20C20.5523 5.5 21 5.94772 21 6.5C21 7.05228 20.5523 7.5 20 7.5H5C4.44772 7.5 4 7.05228 4 6.5Z" fill="black"/>
<path fill-rule="evenodd" clip-rule="evenodd" d="M4 12.75C4 12.1977 4.44772 11.75 5 11.75H20C20.5523 11.75 21 12.1977 21 12.75C21 13.3023 20.5523 13.75 20 13.75H5C4.44772 13.75 4 13.3023 4 12.75Z" fill="black"/>
<path fill-rule="evenodd" clip-rule="evenodd" d="M4 18.75C4 18.1977 4.44772 17.75 5 17.75H20C20.5523 17.75 21 18.1977 21 18.75C21 19.3023 20.5523 19.75 20 19.75H5C4.44772 19.75 4 19.3023 4 18.75Z" fill="black"/>
</svg>
