<svg width="27" height="31" viewBox="0 0 27 31" fill="none" xmlns="http://www.w3.org/2000/svg">
<path d="M15.0033 27.4067C14.2152 28.6535 12.3946 28.6474 11.6149 27.3952L6.69995 19.5015L1.47607 11.2368C0.748581 10.0858 1.35974 8.56098 2.69536 8.29624C9.72983 6.90191 16.9701 6.90191 24.0046 8.29624C25.3402 8.56098 25.9514 10.0858 25.2239 11.2368L20 19.5015L15.0033 27.4067Z" stroke="black" stroke-width="1.5" stroke-linecap="round" stroke-linejoin="round"/>
<path d="M10.3 15.0015C11.4598 15.0015 12.4 14.0613 12.4 12.9015C12.4 11.7417 11.4598 10.8015 10.3 10.8015C9.14019 10.8015 8.19995 11.7417 8.19995 12.9015C8.19995 14.0613 9.14019 15.0015 10.3 15.0015Z" stroke="black" stroke-width="1.5" stroke-linecap="round" stroke-linejoin="round"/>
<path d="M18.0001 15.4015C18.9389 15.4015 19.7 14.6404 19.7 13.7015C19.7 12.7626 18.9389 12.0015 18.0001 12.0015C17.0612 12.0015 16.3 12.7626 16.3 13.7015C16.3 14.6404 17.0612 15.4015 18.0001 15.4015Z" fill="black"/>
<path d="M13.3001 21.6014C14.239 21.6014 15.0001 20.8403 15.0001 19.9014C15.0001 18.9625 14.239 18.2014 13.3001 18.2014C12.3612 18.2014 11.6001 18.9625 11.6001 19.9014C11.6001 20.8403 12.3612 21.6014 13.3001 21.6014Z" fill="black"/>
<path d="M2.30005 7.60152C2.30005 6.46109 2.75304 5.36737 3.55945 4.56096C4.36585 3.75456 5.45961 3.3015 6.60004 3.3015C7.20264 3.2916 7.80032 3.41153 8.35248 3.6531C8.90463 3.89466 9.39834 4.25224 9.80005 4.70153V4.50152C9.80005 3.57326 10.1688 2.68301 10.8251 2.02663C11.4815 1.37025 12.3718 1.00152 13.3 1.00152C13.7634 0.987674 14.2247 1.06874 14.6556 1.23974C15.0865 1.41073 15.4779 1.66803 15.8057 1.99584C16.1335 2.32364 16.3908 2.71503 16.5618 3.14593C16.7328 3.57682 16.8139 4.03814 16.8 4.50152V4.70153C17.3977 4.06761 18.17 3.62535 19.0192 3.43084C19.8684 3.23632 20.7563 3.29829 21.5703 3.60888C22.3842 3.91947 23.0877 4.46471 23.5914 5.1755C24.0952 5.88628 24.3766 6.73063 24.4 7.60152" stroke="black" stroke-width="1.5" stroke-linecap="round" stroke-linejoin="round"/>
</svg>
